%TF.GenerationSoftware,KiCad,Pcbnew,10.0.1*%
%TF.CreationDate,2026-09-25T02:30:35+01:00*%
%TF.ProjectId,FPGA_AURA,46504741-5f41-4555-9241-2e6b69636164,Rev A*%
%TF.SameCoordinates,PX5f5e100PY5f5e100*%
%TF.FileFunction,Paste,Bot*%
%TF.FilePolarity,Positive*%
%FSLAX46Y46*%
G04 Gerber Fmt 4.6, Leading zero omitted, Abs format (unit mm)*
G04 Created by KiCad (PCBNEW 10.0.1) date 2026-09-25 02:30:35*
%MOMM*%
%LPD*%
G01*
G04 APERTURE LIST*
G04 Aperture macros list*
%AMRoundRect*
0 Rectangle with rounded corners*
0 $1 Rounding radius*
0 $2 $3 $4 $5 $6 $7 $8 $9 X,Y pos of 4 corners*
0 Add a 4 corners polygon primitive as box body*
4,1,4,$2,$3,$4,$5,$6,$7,$8,$9,$2,$3,0*
0 Add four circle primitives for the rounded corners*
1,1,$1+$1,$2,$3*
1,1,$1+$1,$4,$5*
1,1,$1+$1,$6,$7*
1,1,$1+$1,$8,$9*
0 Add four rect primitives between the rounded corners*
20,1,$1+$1,$2,$3,$4,$5,0*
20,1,$1+$1,$4,$5,$6,$7,0*
20,1,$1+$1,$6,$7,$8,$9,0*
20,1,$1+$1,$8,$9,$2,$3,0*%
G04 Aperture macros list end*
%ADD10RoundRect,0.079500X-0.079500X-0.100500X0.079500X-0.100500X0.079500X0.100500X-0.079500X0.100500X0*%
%ADD11RoundRect,0.140000X0.140000X0.170000X-0.140000X0.170000X-0.140000X-0.170000X0.140000X-0.170000X0*%
%ADD12RoundRect,0.140000X0.170000X-0.140000X0.170000X0.140000X-0.170000X0.140000X-0.170000X-0.140000X0*%
%ADD13RoundRect,0.079500X0.079500X0.100500X-0.079500X0.100500X-0.079500X-0.100500X0.079500X-0.100500X0*%
%ADD14RoundRect,0.079500X-0.100500X0.079500X-0.100500X-0.079500X0.100500X-0.079500X0.100500X0.079500X0*%
%ADD15RoundRect,0.250000X0.250000X0.475000X-0.250000X0.475000X-0.250000X-0.475000X0.250000X-0.475000X0*%
%ADD16RoundRect,0.140000X-0.170000X0.140000X-0.170000X-0.140000X0.170000X-0.140000X0.170000X0.140000X0*%
%ADD17RoundRect,0.087500X-0.087500X-0.162500X0.087500X-0.162500X0.087500X0.162500X-0.087500X0.162500X0*%
%ADD18RoundRect,0.087500X-0.087500X0.087500X-0.087500X-0.087500X0.087500X-0.087500X0.087500X0.087500X0*%
%ADD19RoundRect,0.087500X-0.087500X-0.087500X0.087500X-0.087500X0.087500X0.087500X-0.087500X0.087500X0*%
%ADD20RoundRect,0.087500X0.087500X-0.087500X0.087500X0.087500X-0.087500X0.087500X-0.087500X-0.087500X0*%
%ADD21RoundRect,0.150000X-0.150000X0.587500X-0.150000X-0.587500X0.150000X-0.587500X0.150000X0.587500X0*%
%ADD22R,0.300000X0.930000*%
%ADD23RoundRect,0.140000X0.021213X-0.219203X0.219203X-0.021213X-0.021213X0.219203X-0.219203X0.021213X0*%
%ADD24RoundRect,0.087500X0.162500X-0.087500X0.162500X0.087500X-0.162500X0.087500X-0.162500X-0.087500X0*%
%ADD25RoundRect,0.087500X0.087500X0.087500X-0.087500X0.087500X-0.087500X-0.087500X0.087500X-0.087500X0*%
%ADD26RoundRect,0.140000X0.219203X0.021213X0.021213X0.219203X-0.219203X-0.021213X-0.021213X-0.219203X0*%
%ADD27RoundRect,0.140000X-0.021213X0.219203X-0.219203X0.021213X0.021213X-0.219203X0.219203X-0.021213X0*%
%ADD28RoundRect,0.135000X0.226274X0.035355X0.035355X0.226274X-0.226274X-0.035355X-0.035355X-0.226274X0*%
%ADD29RoundRect,0.135000X0.135000X0.185000X-0.135000X0.185000X-0.135000X-0.185000X0.135000X-0.185000X0*%
%ADD30RoundRect,0.225000X0.017678X-0.335876X0.335876X-0.017678X-0.017678X0.335876X-0.335876X0.017678X0*%
%ADD31RoundRect,0.079500X-0.127279X-0.014849X-0.014849X-0.127279X0.127279X0.014849X0.014849X0.127279X0*%
%ADD32RoundRect,0.225000X0.335876X0.017678X0.017678X0.335876X-0.335876X-0.017678X-0.017678X-0.335876X0*%
%ADD33RoundRect,0.135000X-0.185000X0.135000X-0.185000X-0.135000X0.185000X-0.135000X0.185000X0.135000X0*%
%ADD34RoundRect,0.140000X-0.219203X-0.021213X-0.021213X-0.219203X0.219203X0.021213X0.021213X0.219203X0*%
%ADD35RoundRect,0.225000X-0.017678X0.335876X-0.335876X0.017678X0.017678X-0.335876X0.335876X-0.017678X0*%
%ADD36RoundRect,0.087500X-0.162500X0.087500X-0.162500X-0.087500X0.162500X-0.087500X0.162500X0.087500X0*%
%ADD37RoundRect,0.140000X-0.140000X-0.170000X0.140000X-0.170000X0.140000X0.170000X-0.140000X0.170000X0*%
%ADD38RoundRect,0.225000X-0.335876X-0.017678X-0.017678X-0.335876X0.335876X0.017678X0.017678X0.335876X0*%
%ADD39RoundRect,0.135000X-0.226274X-0.035355X-0.035355X-0.226274X0.226274X0.035355X0.035355X0.226274X0*%
%ADD40RoundRect,0.135000X-0.135000X-0.185000X0.135000X-0.185000X0.135000X0.185000X-0.135000X0.185000X0*%
%ADD41R,0.950000X0.450000*%
%ADD42R,3.450000X4.350000*%
G04 APERTURE END LIST*
D10*
%TO.C,C430*%
X13780000Y31800000D03*
X14470000Y31800000D03*
%TD*%
D11*
%TO.C,C300*%
X27805000Y18366345D03*
X26845000Y18366345D03*
%TD*%
D12*
%TO.C,C406*%
X10750000Y29020000D03*
X10750000Y29980000D03*
%TD*%
D13*
%TO.C,C425*%
X18595000Y31390000D03*
X17905000Y31390000D03*
%TD*%
D12*
%TO.C,C400*%
X6950000Y29020000D03*
X6950000Y29980000D03*
%TD*%
D14*
%TO.C,R426*%
X15425000Y40636345D03*
X15425000Y39946345D03*
%TD*%
D15*
%TO.C,C201*%
X9300000Y15491345D03*
X7400000Y15491345D03*
%TD*%
D16*
%TO.C,C405*%
X16950000Y40971345D03*
X16950000Y40011345D03*
%TD*%
D17*
%TO.C,R408*%
X6000000Y34000000D03*
X7000000Y34000000D03*
D18*
X6000000Y33450000D03*
D19*
X7010000Y33450000D03*
X5990000Y32950000D03*
D20*
X7000000Y32950000D03*
D17*
X6000000Y32400000D03*
X7000000Y32400000D03*
%TD*%
D21*
%TO.C,Q703*%
X40250000Y18528845D03*
X42150000Y18528845D03*
X41200000Y16653845D03*
%TD*%
D22*
%TO.C,J701*%
X25250000Y7335000D03*
X25250000Y2665000D03*
X25750000Y7335000D03*
X25750000Y2665000D03*
X26250000Y7335000D03*
X26250000Y2665000D03*
X26750000Y7335000D03*
X26750000Y2665000D03*
X27250000Y7335000D03*
X27250000Y2665000D03*
X27750000Y7335000D03*
X27750000Y2665000D03*
X28250000Y7335000D03*
X28250000Y2665000D03*
X28750000Y7335000D03*
X28750000Y2665000D03*
X29250000Y7335000D03*
X29250000Y2665000D03*
X29750000Y7335000D03*
X29750000Y2665000D03*
X30250000Y7335000D03*
X30250000Y2665000D03*
X30750000Y7335000D03*
X30750000Y2665000D03*
X31250000Y7335000D03*
X31250000Y2665000D03*
X31750000Y7335000D03*
X31750000Y2665000D03*
X32250000Y7335000D03*
X32250000Y2665000D03*
X32750000Y7335000D03*
X32750000Y2665000D03*
X33250000Y7335000D03*
X33250000Y2665000D03*
X33750000Y7335000D03*
X33750000Y2665000D03*
X34250000Y7335000D03*
X34250000Y2665000D03*
X34750000Y7335000D03*
X34750000Y2665000D03*
%TD*%
D13*
%TO.C,C426*%
X21345000Y39066345D03*
X20655000Y39066345D03*
%TD*%
D23*
%TO.C,C206*%
X18060589Y13851934D03*
X18739411Y14530756D03*
%TD*%
D21*
%TO.C,Q700*%
X40250000Y13628845D03*
X42150000Y13628845D03*
X41200000Y11753845D03*
%TD*%
D14*
%TO.C,R425*%
X16125000Y40636345D03*
X16125000Y39946345D03*
%TD*%
D13*
%TO.C,C420*%
X10565000Y35271345D03*
X9875000Y35271345D03*
%TD*%
D21*
%TO.C,Q702*%
X43850000Y13628845D03*
X45750000Y13628845D03*
X44800000Y11753845D03*
%TD*%
D24*
%TO.C,R410*%
X11850000Y29000000D03*
X11850000Y30000000D03*
D19*
X12400000Y29000000D03*
D20*
X12400000Y30010000D03*
X12900000Y28990000D03*
D25*
X12900000Y30000000D03*
D24*
X13450000Y29000000D03*
X13450000Y30000000D03*
%TD*%
D23*
%TO.C,C608*%
X14560589Y7426934D03*
X15239411Y8105756D03*
%TD*%
D26*
%TO.C,C205*%
X15939411Y11701934D03*
X15260589Y12380756D03*
%TD*%
D22*
%TO.C,J700*%
X15250000Y47335000D03*
X15250000Y42665000D03*
X15750000Y47335000D03*
X15750000Y42665000D03*
X16250000Y47335000D03*
X16250000Y42665000D03*
X16750000Y47335000D03*
X16750000Y42665000D03*
X17250000Y47335000D03*
X17250000Y42665000D03*
X17750000Y47335000D03*
X17750000Y42665000D03*
X18250000Y47335000D03*
X18250000Y42665000D03*
X18750000Y47335000D03*
X18750000Y42665000D03*
X19250000Y47335000D03*
X19250000Y42665000D03*
X19750000Y47335000D03*
X19750000Y42665000D03*
X20250000Y47335000D03*
X20250000Y42665000D03*
X20750000Y47335000D03*
X20750000Y42665000D03*
X21250000Y47335000D03*
X21250000Y42665000D03*
X21750000Y47335000D03*
X21750000Y42665000D03*
X22250000Y47335000D03*
X22250000Y42665000D03*
X22750000Y47335000D03*
X22750000Y42665000D03*
X23250000Y47335000D03*
X23250000Y42665000D03*
X23750000Y47335000D03*
X23750000Y42665000D03*
X24250000Y47335000D03*
X24250000Y42665000D03*
X24750000Y47335000D03*
X24750000Y42665000D03*
X25250000Y47335000D03*
X25250000Y42665000D03*
X25750000Y47335000D03*
X25750000Y42665000D03*
X26250000Y47335000D03*
X26250000Y42665000D03*
X26750000Y47335000D03*
X26750000Y42665000D03*
X27250000Y47335000D03*
X27250000Y42665000D03*
X27750000Y47335000D03*
X27750000Y42665000D03*
X28250000Y47335000D03*
X28250000Y42665000D03*
X28750000Y47335000D03*
X28750000Y42665000D03*
X29250000Y47335000D03*
X29250000Y42665000D03*
X29750000Y47335000D03*
X29750000Y42665000D03*
X30250000Y47335000D03*
X30250000Y42665000D03*
X30750000Y47335000D03*
X30750000Y42665000D03*
X31250000Y47335000D03*
X31250000Y42665000D03*
X31750000Y47335000D03*
X31750000Y42665000D03*
X32250000Y47335000D03*
X32250000Y42665000D03*
X32750000Y47335000D03*
X32750000Y42665000D03*
X33250000Y47335000D03*
X33250000Y42665000D03*
X33750000Y47335000D03*
X33750000Y42665000D03*
X34250000Y47335000D03*
X34250000Y42665000D03*
X34750000Y47335000D03*
X34750000Y42665000D03*
%TD*%
D13*
%TO.C,R422*%
X14135000Y32701345D03*
X13445000Y32701345D03*
%TD*%
D27*
%TO.C,C212*%
X15939411Y17330756D03*
X15260589Y16651934D03*
%TD*%
D28*
%TO.C,R303*%
X19502624Y9589076D03*
X18781376Y10310324D03*
%TD*%
D29*
%TO.C,R102*%
X48510000Y25741345D03*
X47490000Y25741345D03*
%TD*%
D21*
%TO.C,Q704*%
X40437500Y24078845D03*
X42337500Y24078845D03*
X41387500Y22203845D03*
%TD*%
D30*
%TO.C,C203*%
X12501992Y11743337D03*
X13598008Y12839353D03*
%TD*%
D10*
%TO.C,C423*%
X9855000Y30900000D03*
X10545000Y30900000D03*
%TD*%
D31*
%TO.C,R500*%
X23456048Y15443952D03*
X23943952Y14956048D03*
%TD*%
D32*
%TO.C,C605*%
X6773008Y10193337D03*
X5676992Y11289353D03*
%TD*%
D33*
%TO.C,R703*%
X40150000Y16151345D03*
X40150000Y15131345D03*
%TD*%
D30*
%TO.C,C210*%
X20876992Y13368337D03*
X21973008Y14464353D03*
%TD*%
D10*
%TO.C,C424*%
X8415000Y34541345D03*
X9105000Y34541345D03*
%TD*%
D24*
%TO.C,R412*%
X8050000Y29000000D03*
X8050000Y30000000D03*
D19*
X8600000Y29000000D03*
D20*
X8600000Y30010000D03*
X9100000Y28990000D03*
D25*
X9100000Y30000000D03*
D24*
X9650000Y29000000D03*
X9650000Y30000000D03*
%TD*%
D10*
%TO.C,C419*%
X8406345Y35271345D03*
X9096345Y35271345D03*
%TD*%
D13*
%TO.C,C429*%
X19705000Y39091345D03*
X19015000Y39091345D03*
%TD*%
D10*
%TO.C,C418*%
X8405000Y35991345D03*
X9095000Y35991345D03*
%TD*%
%TO.C,C414*%
X17455000Y39100000D03*
X18145000Y39100000D03*
%TD*%
D34*
%TO.C,C501*%
X13860589Y22280756D03*
X14539411Y21601934D03*
%TD*%
D35*
%TO.C,C504*%
X9698008Y21214353D03*
X8601992Y20118337D03*
%TD*%
D17*
%TO.C,R411*%
X6000000Y37600000D03*
X7000000Y37600000D03*
D18*
X6000000Y37050000D03*
D19*
X7010000Y37050000D03*
X5990000Y36550000D03*
D20*
X7000000Y36550000D03*
D17*
X6000000Y36000000D03*
X7000000Y36000000D03*
%TD*%
D16*
%TO.C,C402*%
X6950000Y40980000D03*
X6950000Y40020000D03*
%TD*%
D35*
%TO.C,C200*%
X14773008Y9789353D03*
X13676992Y8693337D03*
%TD*%
D29*
%TO.C,R709*%
X40410000Y25541345D03*
X39390000Y25541345D03*
%TD*%
D33*
%TO.C,R305*%
X38950000Y18101345D03*
X38950000Y17081345D03*
%TD*%
D29*
%TO.C,R101*%
X45210000Y24491345D03*
X44190000Y24491345D03*
%TD*%
D36*
%TO.C,R413*%
X10750000Y41000000D03*
X10750000Y40000000D03*
D25*
X10200000Y41000000D03*
D18*
X10200000Y39990000D03*
X9700000Y41010000D03*
D19*
X9700000Y40000000D03*
D36*
X9150000Y41000000D03*
X9150000Y40000000D03*
%TD*%
D26*
%TO.C,C613*%
X15914411Y6026934D03*
X15235589Y6705756D03*
%TD*%
D35*
%TO.C,C202*%
X11448008Y10689353D03*
X10351992Y9593337D03*
%TD*%
D10*
%TO.C,C428*%
X19405000Y31400000D03*
X20095000Y31400000D03*
%TD*%
D13*
%TO.C,C415*%
X10555000Y34531345D03*
X9865000Y34531345D03*
%TD*%
D37*
%TO.C,C401*%
X6020000Y31300000D03*
X6980000Y31300000D03*
%TD*%
D35*
%TO.C,C209*%
X21623008Y12039353D03*
X20526992Y10943337D03*
%TD*%
D33*
%TO.C,R707*%
X38975000Y20076345D03*
X38975000Y19056345D03*
%TD*%
D21*
%TO.C,Q701*%
X43850000Y18528845D03*
X45750000Y18528845D03*
X44800000Y16653845D03*
%TD*%
D37*
%TO.C,C407*%
X6020000Y38700000D03*
X6980000Y38700000D03*
%TD*%
D38*
%TO.C,C207*%
X17001992Y12689353D03*
X18098008Y11593337D03*
%TD*%
D14*
%TO.C,C427*%
X11300000Y31645000D03*
X11300000Y30955000D03*
%TD*%
D39*
%TO.C,R304*%
X13564376Y16176969D03*
X14285624Y15455721D03*
%TD*%
D29*
%TO.C,R307*%
X26910000Y17391345D03*
X25890000Y17391345D03*
%TD*%
D13*
%TO.C,C416*%
X10570000Y35991345D03*
X9880000Y35991345D03*
%TD*%
D38*
%TO.C,C211*%
X13701992Y6089353D03*
X14798008Y4993337D03*
%TD*%
D23*
%TO.C,C213*%
X16685589Y18051934D03*
X17364411Y18730756D03*
%TD*%
D27*
%TO.C,C204*%
X11689411Y14489411D03*
X11010589Y13810589D03*
%TD*%
%TO.C,C502*%
X18764411Y20155756D03*
X18085589Y19476934D03*
%TD*%
%TO.C,C208*%
X12389411Y13780756D03*
X11710589Y13101934D03*
%TD*%
D29*
%TO.C,R705*%
X45310000Y15141345D03*
X44290000Y15141345D03*
%TD*%
D40*
%TO.C,R406*%
X37540000Y11441345D03*
X38560000Y11441345D03*
%TD*%
D36*
%TO.C,R409*%
X14550000Y41000000D03*
X14550000Y40000000D03*
D25*
X14000000Y41000000D03*
D18*
X14000000Y39990000D03*
X13500000Y41010000D03*
D19*
X13500000Y40000000D03*
D36*
X12950000Y41000000D03*
X12950000Y40000000D03*
%TD*%
D16*
%TO.C,C403*%
X11850000Y40980000D03*
X11850000Y40020000D03*
%TD*%
D40*
%TO.C,R100*%
X44190000Y25491345D03*
X45210000Y25491345D03*
%TD*%
%TO.C,R103*%
X44190000Y23482690D03*
X45210000Y23482690D03*
%TD*%
D41*
%TO.C,U2*%
X36800000Y17405000D03*
X36800000Y16135000D03*
X36800000Y14865000D03*
X36800000Y13595000D03*
X29000000Y13595000D03*
X29000000Y14865000D03*
X29000000Y16135000D03*
X29000000Y17405000D03*
D42*
X32900000Y15500000D03*
%TD*%
D23*
%TO.C,C214*%
X18785589Y13076934D03*
X19464411Y13755756D03*
%TD*%
D35*
%TO.C,C505*%
X10723008Y20164353D03*
X9626992Y19068337D03*
%TD*%
D12*
%TO.C,C404*%
X14650000Y29020000D03*
X14650000Y29980000D03*
%TD*%
D29*
%TO.C,R119*%
X48510000Y22491345D03*
X47490000Y22491345D03*
%TD*%
M02*
