M48
; DRILL file KiCad 10.0.1 date 2026-09-25T02:30:29
; FORMAT={-:-/ absolute / metric / decimal}
; #@! TF.CreationDate,2026-09-25T02:30:29+01:00
; #@! TF.GenerationSoftware,Kicad,Pcbnew,10.0.1
; #@! TF.FileFunction,Plated,1,10,PTH
FMAT,2
METRIC
; #@! TA.AperFunction,Plated,PTH,ViaDrill
T1C0.200
; #@! TA.AperFunction,Plated,PTH,ViaDrill
T2C0.250
; #@! TA.AperFunction,Plated,PTH,ComponentDrill
T3C0.500
; #@! TA.AperFunction,Plated,PTH,ComponentDrill
T4C3.200
%
G90
G05
T1
X1.75Y8.991
X2.25Y8.991
X2.588Y17.445
X3.936Y14.5
X4.643Y15.198
X4.643Y13.784
X4.643Y13.077
X4.7Y36.0
X4.7Y34.0
X4.716Y35.275
X4.716Y34.725
X5.25Y40.99
X5.317Y34.174
X5.35Y21.5
X5.35Y19.5
X5.351Y20.85
X5.351Y20.15
X5.351Y13.077
X5.351Y12.37
X6.042Y40.999
X6.058Y15.207
X6.058Y12.37
X6.765Y13.086
X6.765Y11.663
X7.05Y41.991
X7.45Y16.616
X7.472Y18.035
X7.472Y12.37
X7.472Y10.956
X7.709Y37.8
X8.0Y31.441
X8.1Y36.6
X8.179Y15.914
X8.179Y18.734
X8.179Y17.32
X8.179Y14.491
X8.179Y13.077
X8.179Y11.663
X8.179Y10.249
X8.6Y37.8
X8.6Y32.2
X8.75Y1.991
X8.886Y13.793
X8.886Y18.027
X8.886Y16.613
X8.886Y12.37
X8.886Y10.956
X8.886Y9.542
X9.0Y38.6
X9.25Y1.991
X9.4Y37.8
X9.4Y37.0
X9.4Y36.291
X9.4Y33.0
X9.4Y32.2
X9.593Y11.672
X9.593Y13.077
X9.593Y10.249
X9.593Y8.127
X9.7Y49.0
X9.7Y48.3
X9.7Y47.6
X9.7Y46.9
X9.8Y38.6
X9.8Y31.4
X10.2Y37.8
X10.2Y37.0
X10.2Y33.0
X10.2Y32.2
X10.22Y33.851
X10.3Y18.036
X10.3Y16.621
X10.3Y13.784
X10.3Y12.37
X10.3Y10.956
X10.3Y7.42
X10.4Y49.0
X10.4Y48.3
X10.4Y47.6
X10.6Y38.616
X10.6Y31.4
X10.75Y5.691
X11.0Y37.8
X11.0Y37.0
X11.0Y33.0
X11.0Y32.2
X11.0Y15.891
X11.007Y17.328
X11.007Y14.5
X11.007Y8.843
X11.007Y18.734
X11.007Y13.077
X11.05Y22.236
X11.1Y49.0
X11.1Y48.3
X11.127Y29.341
X11.4Y38.6
X11.714Y15.207
X11.714Y13.793
X11.714Y20.864
X11.714Y19.45
X11.714Y12.37
X11.714Y9.542
X11.714Y8.127
X11.714Y6.713
X11.8Y37.8
X11.8Y37.0
X11.8Y32.2
X11.8Y31.4
X11.807Y4.798
X12.2Y38.616
X12.422Y20.157
X12.422Y18.743
X12.422Y15.914
X12.422Y14.5
X12.422Y13.086
X12.422Y10.249
X12.422Y8.835
X12.422Y7.42
X12.422Y6.006
X12.6Y37.8
X12.6Y37.0
X12.6Y33.0
X12.6Y32.2
X12.6Y31.4
X12.6Y4.091
X12.7Y48.641
X12.95Y49.2
X13.129Y18.036
X13.129Y15.207
X13.129Y13.793
X13.129Y20.864
X13.129Y19.45
X13.129Y9.55
X13.129Y16.613
X13.129Y10.956
X13.129Y8.127
X13.129Y6.713
X13.129Y5.299
X13.2Y48.641
X13.4Y37.0
X13.4Y33.0
X13.4Y32.2
X13.4Y31.4
X13.45Y49.2
X13.7Y48.641
X13.836Y22.985
X13.836Y21.571
X13.836Y20.157
X13.836Y18.743
X13.836Y17.328
X13.836Y11.672
X13.836Y7.429
X13.836Y14.491
X13.836Y10.249
X13.836Y4.592
X13.95Y49.2
X14.11Y30.991
X14.2Y48.641
X14.2Y37.8
X14.2Y37.0
X14.2Y33.0
X14.2Y32.2
X14.372Y40.619
X14.543Y22.278
X14.543Y20.864
X14.543Y19.45
X14.543Y18.036
X14.543Y16.621
X14.543Y12.398
X14.543Y10.964
X14.543Y8.127
X14.543Y6.713
X14.543Y3.885
X15.0Y37.8
X15.0Y37.0
X15.0Y33.0
X15.0Y32.185
X15.0Y31.4
X15.025Y38.816
X15.25Y48.641
X15.25Y25.814
X15.25Y22.985
X15.25Y21.571
X15.25Y20.157
X15.25Y18.743
X15.25Y17.328
X15.25Y15.914
X15.25Y13.086
X15.25Y11.663
X15.25Y10.257
X15.25Y8.835
X15.25Y7.42
X15.25Y6.006
X15.25Y3.186
X15.75Y48.641
X15.8Y38.6
X15.8Y37.0
X15.8Y33.0
X15.8Y32.2
X15.8Y31.4
X15.95Y3.691
X15.957Y16.613
X15.957Y12.37
X15.957Y10.956
X15.957Y9.542
X15.957Y6.713
X15.957Y5.299
X15.957Y23.692
X15.957Y22.278
X15.957Y20.864
X15.957Y19.45
X15.957Y8.136
X16.25Y48.641
X16.6Y38.6
X16.6Y37.8
X16.6Y33.0
X16.6Y32.2
X16.6Y31.4
X16.664Y10.249
X16.664Y8.835
X16.664Y4.592
X16.664Y22.985
X16.664Y21.571
X16.664Y20.157
X16.664Y18.743
X16.664Y17.328
X16.664Y14.5
X16.664Y11.672
X16.664Y6.015
X16.75Y48.641
X16.9Y3.641
X17.0Y49.191
X17.25Y48.641
X17.371Y23.692
X17.371Y9.542
X17.371Y6.713
X17.371Y5.299
X17.371Y22.278
X17.371Y20.864
X17.371Y19.45
X17.371Y18.036
X17.371Y15.207
X17.371Y13.793
X17.371Y10.964
X17.4Y38.6
X17.4Y37.8
X17.4Y33.0
X17.4Y32.2
X17.4Y31.4
X17.5Y49.191
X17.5Y3.641
X17.51Y7.952
X17.625Y35.909
X17.75Y48.641
X17.9Y40.641
X18.0Y49.191
X18.078Y13.077
X18.078Y10.249
X18.078Y7.42
X18.078Y22.985
X18.078Y21.571
X18.078Y20.157
X18.078Y18.743
X18.078Y15.914
X18.078Y8.843
X18.08Y14.511
X18.2Y38.6
X18.2Y37.8
X18.2Y37.0
X18.25Y48.641
X18.25Y35.35
X18.25Y34.65
X18.525Y41.566
X18.75Y48.641
X18.75Y19.45
X18.785Y12.37
X18.785Y9.542
X18.785Y8.127
X18.785Y6.713
X18.786Y22.278
X18.786Y16.621
X18.786Y15.207
X18.786Y13.793
X18.8Y11.041
X18.9Y40.641
X18.9Y35.7
X18.9Y34.3
X19.0Y38.6
X19.0Y37.8
X19.0Y37.0
X19.0Y33.0
X19.0Y31.4
X19.25Y48.641
X19.493Y20.157
X19.493Y17.32
X19.493Y13.077
X19.493Y7.42
X19.493Y14.5
X19.5Y49.191
X19.5Y10.316
X19.75Y48.641
X19.8Y38.6
X19.8Y37.8
X19.8Y37.0
X19.8Y32.2
X19.9Y41.48
X20.0Y49.191
X20.15Y13.784
X20.2Y20.864
X20.2Y19.441
X20.2Y18.027
X20.2Y16.613
X20.2Y15.198
X20.2Y9.542
X20.2Y8.127
X20.2Y12.379
X20.25Y48.641
X20.5Y49.191
X20.6Y38.6
X20.6Y37.8
X20.6Y37.0
X20.6Y32.2
X20.6Y31.4
X20.75Y48.641
X20.9Y15.891
X20.9Y10.191
X20.907Y20.157
X20.907Y18.743
X20.907Y14.491
X20.907Y11.663
X20.907Y17.328
X21.0Y7.233
X21.25Y48.641
X21.4Y38.6
X21.4Y37.8
X21.4Y37.0
X21.4Y33.0
X21.4Y32.2
X21.4Y31.4
X21.614Y19.45
X21.614Y18.027
X21.614Y10.956
X21.614Y9.542
X21.614Y15.207
X21.75Y48.641
X21.764Y7.95
X22.0Y49.241
X22.25Y48.641
X22.3Y19.991
X22.321Y18.734
X22.321Y17.32
X22.321Y15.906
X22.321Y10.249
X22.321Y13.086
X22.75Y48.641
X23.028Y15.198
X23.028Y12.37
X23.028Y18.035
X23.25Y48.641
X23.4Y18.941
X23.5Y49.241
X23.7Y35.3
X23.7Y34.65
X23.7Y33.95
X23.7Y33.3
X23.735Y14.491
X23.735Y15.914
X23.75Y48.641
X24.0Y49.241
X24.0Y18.941
X24.25Y48.641
X24.25Y41.25
X24.442Y16.613
X24.442Y15.198
X24.442Y13.793
X24.5Y49.241
X24.75Y48.641
X24.75Y41.25
X25.149Y15.906
X25.149Y14.491
X25.15Y11.675
X25.25Y48.641
X25.25Y41.25
X25.25Y1.5
X25.4Y17.841
X25.75Y48.641
X25.75Y1.5
X26.25Y48.641
X26.25Y1.5
X26.35Y16.391
X26.564Y14.5
X26.6Y13.091
X26.75Y48.641
X26.75Y16.691
X26.75Y16.091
X27.0Y49.141
X27.0Y1.491
X27.25Y48.641
X27.35Y13.791
X27.5Y49.141
X27.7Y17.641
X27.7Y17.041
X27.75Y48.641
X27.75Y1.5
X28.0Y49.141
X28.25Y48.641
X28.25Y1.5
X28.75Y48.641
X28.75Y1.5
X29.25Y48.641
X29.25Y1.5
X29.5Y49.141
X29.75Y48.641
X29.75Y1.5
X30.0Y49.141
X30.0Y1.061
X30.05Y14.216
X30.25Y48.641
X30.25Y1.5
X30.4Y41.291
X30.4Y40.791
X30.5Y49.141
X30.75Y48.641
X30.75Y1.5
X30.897Y13.845
X30.902Y14.536
X31.15Y19.691
X31.15Y19.091
X31.25Y48.641
X31.25Y1.5
X31.388Y18.537
X31.5Y1.061
X31.75Y48.641
X31.75Y19.691
X31.75Y19.091
X31.75Y1.5
X31.95Y11.293
X32.0Y49.141
X32.25Y48.641
X32.25Y1.5
X32.75Y48.641
X32.75Y1.5
X33.0Y1.061
X33.25Y48.641
X33.25Y1.5
X33.5Y49.141
X33.75Y48.641
X33.75Y1.5
X34.0Y49.141
X34.25Y48.641
X34.25Y1.5
X34.5Y49.141
X34.5Y21.041
X34.5Y20.441
X34.5Y1.061
X34.75Y48.641
X34.75Y1.5
X35.0Y14.641
X35.0Y14.041
X35.1Y21.041
X35.1Y20.441
X35.2Y7.55
X35.2Y7.075
X35.28Y21.651
X35.6Y14.641
X35.6Y14.041
X36.0Y1.491
X36.1Y10.588
X36.25Y1.051
X36.5Y1.491
X36.6Y10.588
X36.65Y14.216
X36.65Y8.141
X36.715Y18.141
X36.741Y19.141
X36.75Y1.051
X36.775Y20.291
X37.0Y1.491
X37.1Y10.588
X37.25Y1.051
X37.328Y6.729
X37.5Y1.491
X37.6Y10.588
X38.05Y2.641
X38.1Y18.966
X38.1Y18.041
X38.1Y17.4
X38.1Y7.391
X38.1Y10.588
X38.15Y16.791
X38.15Y15.5
X38.15Y14.5
X38.15Y13.5
X38.4Y42.491
X38.55Y9.441
X38.75Y40.0
X38.75Y39.0
X38.75Y38.0
X38.9Y45.941
X38.9Y43.991
X38.9Y42.991
X38.9Y42.491
X38.9Y15.5
X38.9Y14.5
X38.9Y13.5
X39.02Y34.261
X39.036Y10.588
X39.06Y26.909
X39.11Y28.75
X39.15Y24.241
X39.15Y22.55
X39.24Y26.25
X39.4Y46.441
X39.4Y45.941
X39.4Y45.441
X39.4Y43.991
X39.4Y43.491
X39.4Y42.991
X39.4Y42.491
X39.5Y40.0
X39.5Y39.0
X39.5Y38.0
X39.536Y10.588
X39.65Y5.941
X39.85Y30.1
X39.85Y29.4
X39.9Y46.441
X39.9Y45.441
X39.9Y43.491
X40.0Y21.85
X40.036Y10.588
X40.1Y42.491
X40.25Y22.691
X40.4Y5.041
X40.55Y30.1
X40.55Y29.4
X40.6Y42.491
X40.75Y20.0
X41.1Y42.491
X41.4Y20.0
X41.95Y11.341
X42.25Y15.75
X42.5Y37.25
X42.5Y36.25
X42.5Y35.25
X42.5Y34.25
X42.5Y33.25
X42.5Y32.25
X42.5Y31.25
X42.5Y30.25
X42.5Y29.25
X42.7Y10.391
X43.0Y21.75
X43.0Y20.75
X43.0Y19.75
X43.0Y18.75
X43.0Y17.75
X43.0Y16.75
X43.0Y15.75
X43.0Y14.75
X43.0Y13.75
X43.5Y37.25
X43.5Y36.25
X43.5Y35.25
X43.5Y34.25
X43.5Y33.25
X43.5Y32.25
X43.5Y31.25
X43.5Y30.25
X43.5Y29.25
X43.75Y15.75
X44.6Y20.0
X45.2Y20.0
X45.45Y30.1
X45.45Y29.4
X46.15Y30.1
X46.15Y29.4
X46.45Y40.05
X46.45Y39.05
X46.45Y38.05
X46.75Y24.25
X46.75Y23.75
X46.75Y23.25
X46.792Y25.757
X46.8Y26.757
X46.8Y26.257
X47.0Y10.391
X47.05Y15.5
X47.05Y14.5
X47.05Y13.5
X47.2Y40.05
X47.2Y39.05
X47.2Y38.05
X47.25Y11.561
X47.52Y28.91
X47.8Y15.5
X47.8Y14.5
X47.8Y13.5
X48.55Y18.791
X48.57Y20.0
X48.79Y29.13
X49.11Y21.25
X49.13Y25.5
X49.13Y24.5
X49.13Y23.5
X49.13Y22.5
T2
X11.7Y18.016
T3
X2.6Y45.0
X2.6Y5.0
X3.303Y46.697
X3.303Y43.303
X3.303Y6.697
X3.303Y3.303
X5.0Y47.4
X5.0Y42.6
X5.0Y7.4
X5.0Y2.6
X6.697Y46.697
X6.697Y43.303
X6.697Y6.697
X6.697Y3.303
X7.4Y45.0
X7.4Y5.0
X42.6Y45.0
X42.6Y5.0
X43.303Y46.697
X43.303Y43.303
X43.303Y6.697
X43.303Y3.303
X45.0Y47.4
X45.0Y42.6
X45.0Y7.4
X45.0Y2.6
X46.697Y46.697
X46.697Y43.303
X46.697Y6.697
X46.697Y3.303
X47.4Y45.0
X47.4Y5.0
T4
X5.0Y45.0
X5.0Y5.0
X45.0Y45.0
X45.0Y5.0
M30
