%TF.GenerationSoftware,KiCad,Pcbnew,10.0.1*%
%TF.CreationDate,2026-09-25T02:30:35+01:00*%
%TF.ProjectId,FPGA_AURA,46504741-5f41-4555-9241-2e6b69636164,Rev A*%
%TF.SameCoordinates,PX5f5e100PY5f5e100*%
%TF.FileFunction,Soldermask,Top*%
%TF.FilePolarity,Negative*%
%FSLAX46Y46*%
G04 Gerber Fmt 4.6, Leading zero omitted, Abs format (unit mm)*
G04 Created by KiCad (PCBNEW 10.0.1) date 2026-09-25 02:30:35*
%MOMM*%
%LPD*%
G01*
G04 APERTURE LIST*
G04 Aperture macros list*
%AMRoundRect*
0 Rectangle with rounded corners*
0 $1 Rounding radius*
0 $2 $3 $4 $5 $6 $7 $8 $9 X,Y pos of 4 corners*
0 Add a 4 corners polygon primitive as box body*
4,1,4,$2,$3,$4,$5,$6,$7,$8,$9,$2,$3,0*
0 Add four circle primitives for the rounded corners*
1,1,$1+$1,$2,$3*
1,1,$1+$1,$4,$5*
1,1,$1+$1,$6,$7*
1,1,$1+$1,$8,$9*
0 Add four rect primitives between the rounded corners*
20,1,$1+$1,$2,$3,$4,$5,0*
20,1,$1+$1,$4,$5,$6,$7,0*
20,1,$1+$1,$6,$7,$8,$9,0*
20,1,$1+$1,$8,$9,$2,$3,0*%
G04 Aperture macros list end*
%ADD10C,0.010000*%
%ADD11C,0.250000*%
%ADD12C,0.249999*%
%ADD13RoundRect,0.135000X-0.135000X-0.185000X0.135000X-0.185000X0.135000X0.185000X-0.135000X0.185000X0*%
%ADD14RoundRect,0.135000X-0.185000X0.135000X-0.185000X-0.135000X0.185000X-0.135000X0.185000X0.135000X0*%
%ADD15C,0.800000*%
%ADD16C,6.400000*%
%ADD17RoundRect,0.135000X0.185000X-0.135000X0.185000X0.135000X-0.185000X0.135000X-0.185000X-0.135000X0*%
%ADD18RoundRect,0.218750X0.218750X0.256250X-0.218750X0.256250X-0.218750X-0.256250X0.218750X-0.256250X0*%
%ADD19RoundRect,0.140000X-0.021213X0.219203X-0.219203X0.021213X0.021213X-0.219203X0.219203X-0.021213X0*%
%ADD20RoundRect,0.250000X-0.850000X0.375000X-0.850000X-0.375000X0.850000X-0.375000X0.850000X0.375000X0*%
%ADD21RoundRect,0.140000X-0.140000X-0.170000X0.140000X-0.170000X0.140000X0.170000X-0.140000X0.170000X0*%
%ADD22RoundRect,0.250000X-0.250000X-0.475000X0.250000X-0.475000X0.250000X0.475000X-0.250000X0.475000X0*%
%ADD23RoundRect,0.140000X0.021213X-0.219203X0.219203X-0.021213X-0.021213X0.219203X-0.219203X0.021213X0*%
%ADD24RoundRect,0.225000X-0.335876X-0.017678X-0.017678X-0.335876X0.335876X0.017678X0.017678X0.335876X0*%
%ADD25RoundRect,0.250000X1.000000X-0.700000X1.000000X0.700000X-1.000000X0.700000X-1.000000X-0.700000X0*%
%ADD26RoundRect,0.140000X0.140000X0.170000X-0.140000X0.170000X-0.140000X-0.170000X0.140000X-0.170000X0*%
%ADD27RoundRect,0.250000X0.250000X0.475000X-0.250000X0.475000X-0.250000X-0.475000X0.250000X-0.475000X0*%
%ADD28C,0.554000*%
%ADD29RoundRect,0.058000X0.174000X-0.474000X0.174000X0.474000X-0.174000X0.474000X-0.174000X-0.474000X0*%
%ADD30RoundRect,0.058000X0.474000X-0.174000X0.474000X0.174000X-0.474000X0.174000X-0.474000X-0.174000X0*%
%ADD31RoundRect,0.102000X2.150000X-2.150000X2.150000X2.150000X-2.150000X2.150000X-2.150000X-2.150000X0*%
%ADD32RoundRect,0.140000X-0.219203X-0.021213X-0.021213X-0.219203X0.219203X0.021213X0.021213X0.219203X0*%
%ADD33RoundRect,0.225000X0.017678X-0.335876X0.335876X-0.017678X-0.017678X0.335876X-0.335876X0.017678X0*%
%ADD34RoundRect,0.225000X0.225000X0.250000X-0.225000X0.250000X-0.225000X-0.250000X0.225000X-0.250000X0*%
%ADD35RoundRect,0.225000X-0.017678X0.335876X-0.335876X0.017678X0.017678X-0.335876X0.335876X-0.017678X0*%
%ADD36RoundRect,0.140000X0.170000X-0.140000X0.170000X0.140000X-0.170000X0.140000X-0.170000X-0.140000X0*%
%ADD37RoundRect,0.135000X0.135000X0.185000X-0.135000X0.185000X-0.135000X-0.185000X0.135000X-0.185000X0*%
%ADD38RoundRect,0.225000X-0.225000X-0.250000X0.225000X-0.250000X0.225000X0.250000X-0.225000X0.250000X0*%
%ADD39C,0.704000*%
%ADD40RoundRect,0.140000X-0.170000X0.140000X-0.170000X-0.140000X0.170000X-0.140000X0.170000X0.140000X0*%
%ADD41RoundRect,0.102000X0.035355X0.671751X-0.671751X-0.035355X-0.035355X-0.671751X0.671751X0.035355X0*%
G04 APERTURE END LIST*
D10*
%TO.C,U4*%
X31770000Y17451345D02*
X31030000Y17451345D01*
X31030000Y17831345D01*
X31770000Y17831345D01*
X31770000Y17451345D01*
G36*
X31770000Y17451345D02*
G01*
X31030000Y17451345D01*
X31030000Y17831345D01*
X31770000Y17831345D01*
X31770000Y17451345D01*
G37*
X31770000Y16951345D02*
X31030000Y16951345D01*
X31030000Y17331345D01*
X31770000Y17331345D01*
X31770000Y16951345D01*
G36*
X31770000Y16951345D02*
G01*
X31030000Y16951345D01*
X31030000Y17331345D01*
X31770000Y17331345D01*
X31770000Y16951345D01*
G37*
X31770000Y16451345D02*
X31030000Y16451345D01*
X31030000Y16831345D01*
X31770000Y16831345D01*
X31770000Y16451345D01*
G36*
X31770000Y16451345D02*
G01*
X31030000Y16451345D01*
X31030000Y16831345D01*
X31770000Y16831345D01*
X31770000Y16451345D01*
G37*
X31770001Y16331345D02*
X31770000Y15951345D01*
X31030000Y15951345D01*
X31030000Y16331346D01*
X31770001Y16331345D01*
G36*
X31770001Y16331345D02*
G01*
X31770000Y15951345D01*
X31030000Y15951345D01*
X31030000Y16331346D01*
X31770001Y16331345D01*
G37*
X31770001Y17951345D02*
X31030000Y17951344D01*
X31030000Y18331345D01*
X31770000Y18331345D01*
X31770001Y17951345D01*
G36*
X31770001Y17951345D02*
G01*
X31030000Y17951344D01*
X31030000Y18331345D01*
X31770000Y18331345D01*
X31770001Y17951345D01*
G37*
X34570000Y17951344D02*
X33829999Y17951345D01*
X33830000Y18331345D01*
X34570000Y18331345D01*
X34570000Y17951344D01*
G36*
X34570000Y17951344D02*
G01*
X33829999Y17951345D01*
X33830000Y18331345D01*
X34570000Y18331345D01*
X34570000Y17951344D01*
G37*
X34570000Y17451345D02*
X33830000Y17451345D01*
X33830000Y17831345D01*
X34570000Y17831345D01*
X34570000Y17451345D01*
G36*
X34570000Y17451345D02*
G01*
X33830000Y17451345D01*
X33830000Y17831345D01*
X34570000Y17831345D01*
X34570000Y17451345D01*
G37*
X34570000Y16951345D02*
X33830000Y16951345D01*
X33830000Y17331345D01*
X34570000Y17331345D01*
X34570000Y16951345D01*
G36*
X34570000Y16951345D02*
G01*
X33830000Y16951345D01*
X33830000Y17331345D01*
X34570000Y17331345D01*
X34570000Y16951345D01*
G37*
X34570000Y16451345D02*
X33830000Y16451345D01*
X33830000Y16831345D01*
X34570000Y16831345D01*
X34570000Y16451345D01*
G36*
X34570000Y16451345D02*
G01*
X33830000Y16451345D01*
X33830000Y16831345D01*
X34570000Y16831345D01*
X34570000Y16451345D01*
G37*
X34570000Y15951345D02*
X33830000Y15951345D01*
X33829999Y16331345D01*
X34570000Y16331346D01*
X34570000Y15951345D01*
G36*
X34570000Y15951345D02*
G01*
X33830000Y15951345D01*
X33829999Y16331345D01*
X34570000Y16331346D01*
X34570000Y15951345D01*
G37*
X32745001Y18411345D02*
X32854999Y18411345D01*
X32855000Y18911345D01*
X33245001Y18911345D01*
X33245000Y18411345D01*
X33695000Y18411345D01*
X33695000Y15871345D01*
X33245000Y15871345D01*
X33245001Y15371345D01*
X32855000Y15371345D01*
X32854999Y15871345D01*
X32745001Y15871345D01*
X32745000Y15371345D01*
X32354999Y15371345D01*
X32355000Y15871345D01*
X31905000Y15871345D01*
X31905000Y18411345D01*
X32355000Y18411345D01*
X32354999Y18911345D01*
X32745000Y18911345D01*
X32745001Y18411345D01*
G36*
X32745001Y18411345D02*
G01*
X32854999Y18411345D01*
X32855000Y18911345D01*
X33245001Y18911345D01*
X33245000Y18411345D01*
X33695000Y18411345D01*
X33695000Y15871345D01*
X33245000Y15871345D01*
X33245001Y15371345D01*
X32855000Y15371345D01*
X32854999Y15871345D01*
X32745001Y15871345D01*
X32745000Y15371345D01*
X32354999Y15371345D01*
X32355000Y15871345D01*
X31905000Y15871345D01*
X31905000Y18411345D01*
X32355000Y18411345D01*
X32354999Y18911345D01*
X32745000Y18911345D01*
X32745001Y18411345D01*
G37*
%TO.C,U1*%
D11*
X4768398Y14491345D02*
G75*
G02*
X4518398Y14491345I-125000J0D01*
G01*
X4518398Y14491345D02*
G75*
G02*
X4768398Y14491345I125000J0D01*
G01*
X5475505Y15198452D02*
G75*
G02*
X5225505Y15198452I-125000J0D01*
G01*
X5225505Y15198452D02*
G75*
G02*
X5475505Y15198452I125000J0D01*
G01*
X5475505Y13784238D02*
G75*
G02*
X5225505Y13784238I-125000J0D01*
G01*
X5225505Y13784238D02*
G75*
G02*
X5475505Y13784238I125000J0D01*
G01*
X6182612Y15905559D02*
G75*
G02*
X5932612Y15905559I-125000J0D01*
G01*
X5932612Y15905559D02*
G75*
G02*
X6182612Y15905559I125000J0D01*
G01*
X6182612Y14491345D02*
G75*
G02*
X5932612Y14491345I-125000J0D01*
G01*
X5932612Y14491345D02*
G75*
G02*
X6182612Y14491345I125000J0D01*
G01*
X6182612Y13077131D02*
G75*
G02*
X5932612Y13077131I-125000J0D01*
G01*
X5932612Y13077131D02*
G75*
G02*
X6182612Y13077131I125000J0D01*
G01*
X6889719Y16612665D02*
G75*
G02*
X6639719Y16612665I-125000J0D01*
G01*
X6639719Y16612665D02*
G75*
G02*
X6889719Y16612665I125000J0D01*
G01*
D12*
X6889718Y15198452D02*
G75*
G02*
X6639720Y15198452I-124999J0D01*
G01*
X6639720Y15198452D02*
G75*
G02*
X6889718Y15198452I124999J0D01*
G01*
D11*
X6889719Y13784238D02*
G75*
G02*
X6639719Y13784238I-125000J0D01*
G01*
X6639719Y13784238D02*
G75*
G02*
X6889719Y13784238I125000J0D01*
G01*
D12*
X6889718Y12370025D02*
G75*
G02*
X6639720Y12370025I-124999J0D01*
G01*
X6639720Y12370025D02*
G75*
G02*
X6889718Y12370025I124999J0D01*
G01*
D11*
X7596825Y17319772D02*
G75*
G02*
X7346825Y17319772I-125000J0D01*
G01*
X7346825Y17319772D02*
G75*
G02*
X7596825Y17319772I125000J0D01*
G01*
X7596825Y15905559D02*
G75*
G02*
X7346825Y15905559I-125000J0D01*
G01*
X7346825Y15905559D02*
G75*
G02*
X7596825Y15905559I125000J0D01*
G01*
X7596825Y14491345D02*
G75*
G02*
X7346825Y14491345I-125000J0D01*
G01*
X7346825Y14491345D02*
G75*
G02*
X7596825Y14491345I125000J0D01*
G01*
X7596825Y13077131D02*
G75*
G02*
X7346825Y13077131I-125000J0D01*
G01*
X7346825Y13077131D02*
G75*
G02*
X7596825Y13077131I125000J0D01*
G01*
X7596825Y11662918D02*
G75*
G02*
X7346825Y11662918I-125000J0D01*
G01*
X7346825Y11662918D02*
G75*
G02*
X7596825Y11662918I125000J0D01*
G01*
X8303932Y18026879D02*
G75*
G02*
X8053932Y18026879I-125000J0D01*
G01*
X8053932Y18026879D02*
G75*
G02*
X8303932Y18026879I125000J0D01*
G01*
X8303932Y16612665D02*
G75*
G02*
X8053932Y16612665I-125000J0D01*
G01*
X8053932Y16612665D02*
G75*
G02*
X8303932Y16612665I125000J0D01*
G01*
X8303932Y15198452D02*
G75*
G02*
X8053932Y15198452I-125000J0D01*
G01*
X8053932Y15198452D02*
G75*
G02*
X8303932Y15198452I125000J0D01*
G01*
X8303932Y13784238D02*
G75*
G02*
X8053932Y13784238I-125000J0D01*
G01*
X8053932Y13784238D02*
G75*
G02*
X8303932Y13784238I125000J0D01*
G01*
X8303932Y12370025D02*
G75*
G02*
X8053932Y12370025I-125000J0D01*
G01*
X8053932Y12370025D02*
G75*
G02*
X8303932Y12370025I125000J0D01*
G01*
X8303932Y10955811D02*
G75*
G02*
X8053932Y10955811I-125000J0D01*
G01*
X8053932Y10955811D02*
G75*
G02*
X8303932Y10955811I125000J0D01*
G01*
X9011039Y18733986D02*
G75*
G02*
X8761039Y18733986I-125000J0D01*
G01*
X8761039Y18733986D02*
G75*
G02*
X9011039Y18733986I125000J0D01*
G01*
X9011039Y17319772D02*
G75*
G02*
X8761039Y17319772I-125000J0D01*
G01*
X8761039Y17319772D02*
G75*
G02*
X9011039Y17319772I125000J0D01*
G01*
X9011039Y15905559D02*
G75*
G02*
X8761039Y15905559I-125000J0D01*
G01*
X8761039Y15905559D02*
G75*
G02*
X9011039Y15905559I125000J0D01*
G01*
X9011039Y14491345D02*
G75*
G02*
X8761039Y14491345I-125000J0D01*
G01*
X8761039Y14491345D02*
G75*
G02*
X9011039Y14491345I125000J0D01*
G01*
X9011039Y13077131D02*
G75*
G02*
X8761039Y13077131I-125000J0D01*
G01*
X8761039Y13077131D02*
G75*
G02*
X9011039Y13077131I125000J0D01*
G01*
X9011039Y11662918D02*
G75*
G02*
X8761039Y11662918I-125000J0D01*
G01*
X8761039Y11662918D02*
G75*
G02*
X9011039Y11662918I125000J0D01*
G01*
X9011039Y10248704D02*
G75*
G02*
X8761039Y10248704I-125000J0D01*
G01*
X8761039Y10248704D02*
G75*
G02*
X9011039Y10248704I125000J0D01*
G01*
X9718146Y19441092D02*
G75*
G02*
X9468146Y19441092I-125000J0D01*
G01*
X9468146Y19441092D02*
G75*
G02*
X9718146Y19441092I125000J0D01*
G01*
X9718146Y18026879D02*
G75*
G02*
X9468146Y18026879I-125000J0D01*
G01*
X9468146Y18026879D02*
G75*
G02*
X9718146Y18026879I125000J0D01*
G01*
X9718146Y16612665D02*
G75*
G02*
X9468146Y16612665I-125000J0D01*
G01*
X9468146Y16612665D02*
G75*
G02*
X9718146Y16612665I125000J0D01*
G01*
D12*
X9718145Y15198452D02*
G75*
G02*
X9468147Y15198452I-124999J0D01*
G01*
X9468147Y15198452D02*
G75*
G02*
X9718145Y15198452I124999J0D01*
G01*
D11*
X9718146Y13784238D02*
G75*
G02*
X9468146Y13784238I-125000J0D01*
G01*
X9468146Y13784238D02*
G75*
G02*
X9718146Y13784238I125000J0D01*
G01*
D12*
X9718145Y12370025D02*
G75*
G02*
X9468147Y12370025I-124999J0D01*
G01*
X9468147Y12370025D02*
G75*
G02*
X9718145Y12370025I124999J0D01*
G01*
D11*
X9718146Y10955811D02*
G75*
G02*
X9468146Y10955811I-125000J0D01*
G01*
X9468146Y10955811D02*
G75*
G02*
X9718146Y10955811I125000J0D01*
G01*
D12*
X9718145Y9541598D02*
G75*
G02*
X9468147Y9541598I-124999J0D01*
G01*
X9468147Y9541598D02*
G75*
G02*
X9718145Y9541598I124999J0D01*
G01*
D11*
X10425253Y20148199D02*
G75*
G02*
X10175253Y20148199I-125000J0D01*
G01*
X10175253Y20148199D02*
G75*
G02*
X10425253Y20148199I125000J0D01*
G01*
D12*
X10425252Y18733986D02*
G75*
G02*
X10175254Y18733986I-124999J0D01*
G01*
X10175254Y18733986D02*
G75*
G02*
X10425252Y18733986I124999J0D01*
G01*
D11*
X10425253Y17319772D02*
G75*
G02*
X10175253Y17319772I-125000J0D01*
G01*
X10175253Y17319772D02*
G75*
G02*
X10425253Y17319772I125000J0D01*
G01*
D12*
X10425252Y15905559D02*
G75*
G02*
X10175254Y15905559I-124999J0D01*
G01*
X10175254Y15905559D02*
G75*
G02*
X10425252Y15905559I124999J0D01*
G01*
D11*
X10425253Y14491345D02*
G75*
G02*
X10175253Y14491345I-125000J0D01*
G01*
X10175253Y14491345D02*
G75*
G02*
X10425253Y14491345I125000J0D01*
G01*
X10425253Y13077131D02*
G75*
G02*
X10175253Y13077131I-125000J0D01*
G01*
X10175253Y13077131D02*
G75*
G02*
X10425253Y13077131I125000J0D01*
G01*
X10425253Y11662918D02*
G75*
G02*
X10175253Y11662918I-125000J0D01*
G01*
X10175253Y11662918D02*
G75*
G02*
X10425253Y11662918I125000J0D01*
G01*
X10425253Y10248704D02*
G75*
G02*
X10175253Y10248704I-125000J0D01*
G01*
X10175253Y10248704D02*
G75*
G02*
X10425253Y10248704I125000J0D01*
G01*
D12*
X10425252Y8834491D02*
G75*
G02*
X10175254Y8834491I-124999J0D01*
G01*
X10175254Y8834491D02*
G75*
G02*
X10425252Y8834491I124999J0D01*
G01*
D11*
X11132359Y20855306D02*
G75*
G02*
X10882359Y20855306I-125000J0D01*
G01*
X10882359Y20855306D02*
G75*
G02*
X11132359Y20855306I125000J0D01*
G01*
X11132359Y19441092D02*
G75*
G02*
X10882359Y19441092I-125000J0D01*
G01*
X10882359Y19441092D02*
G75*
G02*
X11132359Y19441092I125000J0D01*
G01*
X11132359Y18026879D02*
G75*
G02*
X10882359Y18026879I-125000J0D01*
G01*
X10882359Y18026879D02*
G75*
G02*
X11132359Y18026879I125000J0D01*
G01*
X11132359Y16612665D02*
G75*
G02*
X10882359Y16612665I-125000J0D01*
G01*
X10882359Y16612665D02*
G75*
G02*
X11132359Y16612665I125000J0D01*
G01*
X11132359Y15198452D02*
G75*
G02*
X10882359Y15198452I-125000J0D01*
G01*
X10882359Y15198452D02*
G75*
G02*
X11132359Y15198452I125000J0D01*
G01*
X11132359Y13784238D02*
G75*
G02*
X10882359Y13784238I-125000J0D01*
G01*
X10882359Y13784238D02*
G75*
G02*
X11132359Y13784238I125000J0D01*
G01*
X11132359Y12370025D02*
G75*
G02*
X10882359Y12370025I-125000J0D01*
G01*
X10882359Y12370025D02*
G75*
G02*
X11132359Y12370025I125000J0D01*
G01*
X11132359Y10955811D02*
G75*
G02*
X10882359Y10955811I-125000J0D01*
G01*
X10882359Y10955811D02*
G75*
G02*
X11132359Y10955811I125000J0D01*
G01*
X11132359Y9541598D02*
G75*
G02*
X10882359Y9541598I-125000J0D01*
G01*
X10882359Y9541598D02*
G75*
G02*
X11132359Y9541598I125000J0D01*
G01*
X11132359Y8127384D02*
G75*
G02*
X10882359Y8127384I-125000J0D01*
G01*
X10882359Y8127384D02*
G75*
G02*
X11132359Y8127384I125000J0D01*
G01*
X11839466Y21562413D02*
G75*
G02*
X11589466Y21562413I-125000J0D01*
G01*
X11589466Y21562413D02*
G75*
G02*
X11839466Y21562413I125000J0D01*
G01*
X11839466Y20148199D02*
G75*
G02*
X11589466Y20148199I-125000J0D01*
G01*
X11589466Y20148199D02*
G75*
G02*
X11839466Y20148199I125000J0D01*
G01*
X11839466Y18733986D02*
G75*
G02*
X11589466Y18733986I-125000J0D01*
G01*
X11589466Y18733986D02*
G75*
G02*
X11839466Y18733986I125000J0D01*
G01*
X11839466Y17319772D02*
G75*
G02*
X11589466Y17319772I-125000J0D01*
G01*
X11589466Y17319772D02*
G75*
G02*
X11839466Y17319772I125000J0D01*
G01*
X11839466Y15905559D02*
G75*
G02*
X11589466Y15905559I-125000J0D01*
G01*
X11589466Y15905559D02*
G75*
G02*
X11839466Y15905559I125000J0D01*
G01*
X11839466Y14491345D02*
G75*
G02*
X11589466Y14491345I-125000J0D01*
G01*
X11589466Y14491345D02*
G75*
G02*
X11839466Y14491345I125000J0D01*
G01*
X11839466Y13077131D02*
G75*
G02*
X11589466Y13077131I-125000J0D01*
G01*
X11589466Y13077131D02*
G75*
G02*
X11839466Y13077131I125000J0D01*
G01*
X11839466Y11662918D02*
G75*
G02*
X11589466Y11662918I-125000J0D01*
G01*
X11589466Y11662918D02*
G75*
G02*
X11839466Y11662918I125000J0D01*
G01*
X11839466Y10248704D02*
G75*
G02*
X11589466Y10248704I-125000J0D01*
G01*
X11589466Y10248704D02*
G75*
G02*
X11839466Y10248704I125000J0D01*
G01*
X11839466Y8834491D02*
G75*
G02*
X11589466Y8834491I-125000J0D01*
G01*
X11589466Y8834491D02*
G75*
G02*
X11839466Y8834491I125000J0D01*
G01*
X11839466Y7420277D02*
G75*
G02*
X11589466Y7420277I-125000J0D01*
G01*
X11589466Y7420277D02*
G75*
G02*
X11839466Y7420277I125000J0D01*
G01*
X12546573Y22269520D02*
G75*
G02*
X12296573Y22269520I-125000J0D01*
G01*
X12296573Y22269520D02*
G75*
G02*
X12546573Y22269520I125000J0D01*
G01*
X12546573Y20855306D02*
G75*
G02*
X12296573Y20855306I-125000J0D01*
G01*
X12296573Y20855306D02*
G75*
G02*
X12546573Y20855306I125000J0D01*
G01*
X12546573Y19441092D02*
G75*
G02*
X12296573Y19441092I-125000J0D01*
G01*
X12296573Y19441092D02*
G75*
G02*
X12546573Y19441092I125000J0D01*
G01*
X12546573Y18026879D02*
G75*
G02*
X12296573Y18026879I-125000J0D01*
G01*
X12296573Y18026879D02*
G75*
G02*
X12546573Y18026879I125000J0D01*
G01*
X12546573Y16612665D02*
G75*
G02*
X12296573Y16612665I-125000J0D01*
G01*
X12296573Y16612665D02*
G75*
G02*
X12546573Y16612665I125000J0D01*
G01*
X12546573Y15198452D02*
G75*
G02*
X12296573Y15198452I-125000J0D01*
G01*
X12296573Y15198452D02*
G75*
G02*
X12546573Y15198452I125000J0D01*
G01*
X12546573Y13784238D02*
G75*
G02*
X12296573Y13784238I-125000J0D01*
G01*
X12296573Y13784238D02*
G75*
G02*
X12546573Y13784238I125000J0D01*
G01*
X12546573Y12370025D02*
G75*
G02*
X12296573Y12370025I-125000J0D01*
G01*
X12296573Y12370025D02*
G75*
G02*
X12546573Y12370025I125000J0D01*
G01*
X12546573Y10955811D02*
G75*
G02*
X12296573Y10955811I-125000J0D01*
G01*
X12296573Y10955811D02*
G75*
G02*
X12546573Y10955811I125000J0D01*
G01*
X12546573Y9541598D02*
G75*
G02*
X12296573Y9541598I-125000J0D01*
G01*
X12296573Y9541598D02*
G75*
G02*
X12546573Y9541598I125000J0D01*
G01*
X12546573Y8127384D02*
G75*
G02*
X12296573Y8127384I-125000J0D01*
G01*
X12296573Y8127384D02*
G75*
G02*
X12546573Y8127384I125000J0D01*
G01*
X12546573Y6713170D02*
G75*
G02*
X12296573Y6713170I-125000J0D01*
G01*
X12296573Y6713170D02*
G75*
G02*
X12546573Y6713170I125000J0D01*
G01*
X13253680Y22976626D02*
G75*
G02*
X13003680Y22976626I-125000J0D01*
G01*
X13003680Y22976626D02*
G75*
G02*
X13253680Y22976626I125000J0D01*
G01*
X13253680Y21562413D02*
G75*
G02*
X13003680Y21562413I-125000J0D01*
G01*
X13003680Y21562413D02*
G75*
G02*
X13253680Y21562413I125000J0D01*
G01*
X13253680Y20148199D02*
G75*
G02*
X13003680Y20148199I-125000J0D01*
G01*
X13003680Y20148199D02*
G75*
G02*
X13253680Y20148199I125000J0D01*
G01*
D12*
X13253679Y18733986D02*
G75*
G02*
X13003681Y18733986I-124999J0D01*
G01*
X13003681Y18733986D02*
G75*
G02*
X13253679Y18733986I124999J0D01*
G01*
D11*
X13253680Y17319772D02*
G75*
G02*
X13003680Y17319772I-125000J0D01*
G01*
X13003680Y17319772D02*
G75*
G02*
X13253680Y17319772I125000J0D01*
G01*
D12*
X13253679Y15905559D02*
G75*
G02*
X13003681Y15905559I-124999J0D01*
G01*
X13003681Y15905559D02*
G75*
G02*
X13253679Y15905559I124999J0D01*
G01*
D11*
X13253680Y14491345D02*
G75*
G02*
X13003680Y14491345I-125000J0D01*
G01*
X13003680Y14491345D02*
G75*
G02*
X13253680Y14491345I125000J0D01*
G01*
X13253680Y13077131D02*
G75*
G02*
X13003680Y13077131I-125000J0D01*
G01*
X13003680Y13077131D02*
G75*
G02*
X13253680Y13077131I125000J0D01*
G01*
X13253680Y11662918D02*
G75*
G02*
X13003680Y11662918I-125000J0D01*
G01*
X13003680Y11662918D02*
G75*
G02*
X13253680Y11662918I125000J0D01*
G01*
X13253680Y10248704D02*
G75*
G02*
X13003680Y10248704I-125000J0D01*
G01*
X13003680Y10248704D02*
G75*
G02*
X13253680Y10248704I125000J0D01*
G01*
D12*
X13253679Y8834491D02*
G75*
G02*
X13003681Y8834491I-124999J0D01*
G01*
X13003681Y8834491D02*
G75*
G02*
X13253679Y8834491I124999J0D01*
G01*
D11*
X13253680Y7420277D02*
G75*
G02*
X13003680Y7420277I-125000J0D01*
G01*
X13003680Y7420277D02*
G75*
G02*
X13253680Y7420277I125000J0D01*
G01*
D12*
X13253679Y6006064D02*
G75*
G02*
X13003681Y6006064I-124999J0D01*
G01*
X13003681Y6006064D02*
G75*
G02*
X13253679Y6006064I124999J0D01*
G01*
D11*
X13960786Y23683733D02*
G75*
G02*
X13710786Y23683733I-125000J0D01*
G01*
X13710786Y23683733D02*
G75*
G02*
X13960786Y23683733I125000J0D01*
G01*
X13960786Y22269520D02*
G75*
G02*
X13710786Y22269520I-125000J0D01*
G01*
X13710786Y22269520D02*
G75*
G02*
X13960786Y22269520I125000J0D01*
G01*
X13960786Y20855306D02*
G75*
G02*
X13710786Y20855306I-125000J0D01*
G01*
X13710786Y20855306D02*
G75*
G02*
X13960786Y20855306I125000J0D01*
G01*
X13960786Y19441092D02*
G75*
G02*
X13710786Y19441092I-125000J0D01*
G01*
X13710786Y19441092D02*
G75*
G02*
X13960786Y19441092I125000J0D01*
G01*
X13960786Y18026879D02*
G75*
G02*
X13710786Y18026879I-125000J0D01*
G01*
X13710786Y18026879D02*
G75*
G02*
X13960786Y18026879I125000J0D01*
G01*
X13960786Y16612665D02*
G75*
G02*
X13710786Y16612665I-125000J0D01*
G01*
X13710786Y16612665D02*
G75*
G02*
X13960786Y16612665I125000J0D01*
G01*
X13960786Y15198452D02*
G75*
G02*
X13710786Y15198452I-125000J0D01*
G01*
X13710786Y15198452D02*
G75*
G02*
X13960786Y15198452I125000J0D01*
G01*
X13960786Y13784238D02*
G75*
G02*
X13710786Y13784238I-125000J0D01*
G01*
X13710786Y13784238D02*
G75*
G02*
X13960786Y13784238I125000J0D01*
G01*
X13960786Y12370025D02*
G75*
G02*
X13710786Y12370025I-125000J0D01*
G01*
X13710786Y12370025D02*
G75*
G02*
X13960786Y12370025I125000J0D01*
G01*
X13960786Y10955811D02*
G75*
G02*
X13710786Y10955811I-125000J0D01*
G01*
X13710786Y10955811D02*
G75*
G02*
X13960786Y10955811I125000J0D01*
G01*
X13960786Y9541598D02*
G75*
G02*
X13710786Y9541598I-125000J0D01*
G01*
X13710786Y9541598D02*
G75*
G02*
X13960786Y9541598I125000J0D01*
G01*
X13960786Y8127384D02*
G75*
G02*
X13710786Y8127384I-125000J0D01*
G01*
X13710786Y8127384D02*
G75*
G02*
X13960786Y8127384I125000J0D01*
G01*
X13960786Y6713170D02*
G75*
G02*
X13710786Y6713170I-125000J0D01*
G01*
X13710786Y6713170D02*
G75*
G02*
X13960786Y6713170I125000J0D01*
G01*
X13960786Y5298957D02*
G75*
G02*
X13710786Y5298957I-125000J0D01*
G01*
X13710786Y5298957D02*
G75*
G02*
X13960786Y5298957I125000J0D01*
G01*
X14667893Y24390840D02*
G75*
G02*
X14417893Y24390840I-125000J0D01*
G01*
X14417893Y24390840D02*
G75*
G02*
X14667893Y24390840I125000J0D01*
G01*
X14667893Y22976626D02*
G75*
G02*
X14417893Y22976626I-125000J0D01*
G01*
X14417893Y22976626D02*
G75*
G02*
X14667893Y22976626I125000J0D01*
G01*
X14667893Y21562413D02*
G75*
G02*
X14417893Y21562413I-125000J0D01*
G01*
X14417893Y21562413D02*
G75*
G02*
X14667893Y21562413I125000J0D01*
G01*
X14667893Y20148199D02*
G75*
G02*
X14417893Y20148199I-125000J0D01*
G01*
X14417893Y20148199D02*
G75*
G02*
X14667893Y20148199I125000J0D01*
G01*
X14667893Y18733986D02*
G75*
G02*
X14417893Y18733986I-125000J0D01*
G01*
X14417893Y18733986D02*
G75*
G02*
X14667893Y18733986I125000J0D01*
G01*
X14667893Y17319772D02*
G75*
G02*
X14417893Y17319772I-125000J0D01*
G01*
X14417893Y17319772D02*
G75*
G02*
X14667893Y17319772I125000J0D01*
G01*
X14667893Y15905559D02*
G75*
G02*
X14417893Y15905559I-125000J0D01*
G01*
X14417893Y15905559D02*
G75*
G02*
X14667893Y15905559I125000J0D01*
G01*
X14667893Y14491345D02*
G75*
G02*
X14417893Y14491345I-125000J0D01*
G01*
X14417893Y14491345D02*
G75*
G02*
X14667893Y14491345I125000J0D01*
G01*
X14667893Y13077131D02*
G75*
G02*
X14417893Y13077131I-125000J0D01*
G01*
X14417893Y13077131D02*
G75*
G02*
X14667893Y13077131I125000J0D01*
G01*
X14667893Y11662918D02*
G75*
G02*
X14417893Y11662918I-125000J0D01*
G01*
X14417893Y11662918D02*
G75*
G02*
X14667893Y11662918I125000J0D01*
G01*
X14667893Y10248704D02*
G75*
G02*
X14417893Y10248704I-125000J0D01*
G01*
X14417893Y10248704D02*
G75*
G02*
X14667893Y10248704I125000J0D01*
G01*
X14667893Y8834491D02*
G75*
G02*
X14417893Y8834491I-125000J0D01*
G01*
X14417893Y8834491D02*
G75*
G02*
X14667893Y8834491I125000J0D01*
G01*
X14667893Y7420277D02*
G75*
G02*
X14417893Y7420277I-125000J0D01*
G01*
X14417893Y7420277D02*
G75*
G02*
X14667893Y7420277I125000J0D01*
G01*
X14667893Y6006064D02*
G75*
G02*
X14417893Y6006064I-125000J0D01*
G01*
X14417893Y6006064D02*
G75*
G02*
X14667893Y6006064I125000J0D01*
G01*
X14667893Y4591850D02*
G75*
G02*
X14417893Y4591850I-125000J0D01*
G01*
X14417893Y4591850D02*
G75*
G02*
X14667893Y4591850I125000J0D01*
G01*
X15375000Y25097947D02*
G75*
G02*
X15125000Y25097947I-125000J0D01*
G01*
X15125000Y25097947D02*
G75*
G02*
X15375000Y25097947I125000J0D01*
G01*
X15375000Y23683733D02*
G75*
G02*
X15125000Y23683733I-125000J0D01*
G01*
X15125000Y23683733D02*
G75*
G02*
X15375000Y23683733I125000J0D01*
G01*
X15375000Y22269520D02*
G75*
G02*
X15125000Y22269520I-125000J0D01*
G01*
X15125000Y22269520D02*
G75*
G02*
X15375000Y22269520I125000J0D01*
G01*
X15375000Y20855306D02*
G75*
G02*
X15125000Y20855306I-125000J0D01*
G01*
X15125000Y20855306D02*
G75*
G02*
X15375000Y20855306I125000J0D01*
G01*
X15375000Y19441092D02*
G75*
G02*
X15125000Y19441092I-125000J0D01*
G01*
X15125000Y19441092D02*
G75*
G02*
X15375000Y19441092I125000J0D01*
G01*
X15375000Y18026879D02*
G75*
G02*
X15125000Y18026879I-125000J0D01*
G01*
X15125000Y18026879D02*
G75*
G02*
X15375000Y18026879I125000J0D01*
G01*
X15375000Y16612665D02*
G75*
G02*
X15125000Y16612665I-125000J0D01*
G01*
X15125000Y16612665D02*
G75*
G02*
X15375000Y16612665I125000J0D01*
G01*
X15375000Y15198452D02*
G75*
G02*
X15125000Y15198452I-125000J0D01*
G01*
X15125000Y15198452D02*
G75*
G02*
X15375000Y15198452I125000J0D01*
G01*
X15375000Y13784238D02*
G75*
G02*
X15125000Y13784238I-125000J0D01*
G01*
X15125000Y13784238D02*
G75*
G02*
X15375000Y13784238I125000J0D01*
G01*
X15375000Y12370025D02*
G75*
G02*
X15125000Y12370025I-125000J0D01*
G01*
X15125000Y12370025D02*
G75*
G02*
X15375000Y12370025I125000J0D01*
G01*
X15375000Y10955811D02*
G75*
G02*
X15125000Y10955811I-125000J0D01*
G01*
X15125000Y10955811D02*
G75*
G02*
X15375000Y10955811I125000J0D01*
G01*
X15375000Y9541598D02*
G75*
G02*
X15125000Y9541598I-125000J0D01*
G01*
X15125000Y9541598D02*
G75*
G02*
X15375000Y9541598I125000J0D01*
G01*
X15375000Y8127384D02*
G75*
G02*
X15125000Y8127384I-125000J0D01*
G01*
X15125000Y8127384D02*
G75*
G02*
X15375000Y8127384I125000J0D01*
G01*
X15375000Y6713170D02*
G75*
G02*
X15125000Y6713170I-125000J0D01*
G01*
X15125000Y6713170D02*
G75*
G02*
X15375000Y6713170I125000J0D01*
G01*
X15375000Y5298957D02*
G75*
G02*
X15125000Y5298957I-125000J0D01*
G01*
X15125000Y5298957D02*
G75*
G02*
X15375000Y5298957I125000J0D01*
G01*
X15375000Y3884743D02*
G75*
G02*
X15125000Y3884743I-125000J0D01*
G01*
X15125000Y3884743D02*
G75*
G02*
X15375000Y3884743I125000J0D01*
G01*
X16082107Y24390840D02*
G75*
G02*
X15832107Y24390840I-125000J0D01*
G01*
X15832107Y24390840D02*
G75*
G02*
X16082107Y24390840I125000J0D01*
G01*
X16082107Y22976626D02*
G75*
G02*
X15832107Y22976626I-125000J0D01*
G01*
X15832107Y22976626D02*
G75*
G02*
X16082107Y22976626I125000J0D01*
G01*
X16082107Y21562413D02*
G75*
G02*
X15832107Y21562413I-125000J0D01*
G01*
X15832107Y21562413D02*
G75*
G02*
X16082107Y21562413I125000J0D01*
G01*
X16082107Y20148199D02*
G75*
G02*
X15832107Y20148199I-125000J0D01*
G01*
X15832107Y20148199D02*
G75*
G02*
X16082107Y20148199I125000J0D01*
G01*
D12*
X16082106Y18733986D02*
G75*
G02*
X15832108Y18733986I-124999J0D01*
G01*
X15832108Y18733986D02*
G75*
G02*
X16082106Y18733986I124999J0D01*
G01*
D11*
X16082107Y17319772D02*
G75*
G02*
X15832107Y17319772I-125000J0D01*
G01*
X15832107Y17319772D02*
G75*
G02*
X16082107Y17319772I125000J0D01*
G01*
D12*
X16082106Y15905559D02*
G75*
G02*
X15832108Y15905559I-124999J0D01*
G01*
X15832108Y15905559D02*
G75*
G02*
X16082106Y15905559I124999J0D01*
G01*
D11*
X16082107Y14491345D02*
G75*
G02*
X15832107Y14491345I-125000J0D01*
G01*
X15832107Y14491345D02*
G75*
G02*
X16082107Y14491345I125000J0D01*
G01*
X16082107Y13077131D02*
G75*
G02*
X15832107Y13077131I-125000J0D01*
G01*
X15832107Y13077131D02*
G75*
G02*
X16082107Y13077131I125000J0D01*
G01*
X16082107Y11662918D02*
G75*
G02*
X15832107Y11662918I-125000J0D01*
G01*
X15832107Y11662918D02*
G75*
G02*
X16082107Y11662918I125000J0D01*
G01*
X16082107Y10248704D02*
G75*
G02*
X15832107Y10248704I-125000J0D01*
G01*
X15832107Y10248704D02*
G75*
G02*
X16082107Y10248704I125000J0D01*
G01*
D12*
X16082106Y8834491D02*
G75*
G02*
X15832108Y8834491I-124999J0D01*
G01*
X15832108Y8834491D02*
G75*
G02*
X16082106Y8834491I124999J0D01*
G01*
D11*
X16082107Y7420277D02*
G75*
G02*
X15832107Y7420277I-125000J0D01*
G01*
X15832107Y7420277D02*
G75*
G02*
X16082107Y7420277I125000J0D01*
G01*
D12*
X16082106Y6006064D02*
G75*
G02*
X15832108Y6006064I-124999J0D01*
G01*
X15832108Y6006064D02*
G75*
G02*
X16082106Y6006064I124999J0D01*
G01*
D11*
X16082107Y4591850D02*
G75*
G02*
X15832107Y4591850I-125000J0D01*
G01*
X15832107Y4591850D02*
G75*
G02*
X16082107Y4591850I125000J0D01*
G01*
X16789214Y23683733D02*
G75*
G02*
X16539214Y23683733I-125000J0D01*
G01*
X16539214Y23683733D02*
G75*
G02*
X16789214Y23683733I125000J0D01*
G01*
D12*
X16789213Y22269520D02*
G75*
G02*
X16539215Y22269520I-124999J0D01*
G01*
X16539215Y22269520D02*
G75*
G02*
X16789213Y22269520I124999J0D01*
G01*
D11*
X16789214Y20855306D02*
G75*
G02*
X16539214Y20855306I-125000J0D01*
G01*
X16539214Y20855306D02*
G75*
G02*
X16789214Y20855306I125000J0D01*
G01*
X16789214Y19441092D02*
G75*
G02*
X16539214Y19441092I-125000J0D01*
G01*
X16539214Y19441092D02*
G75*
G02*
X16789214Y19441092I125000J0D01*
G01*
X16789214Y18026879D02*
G75*
G02*
X16539214Y18026879I-125000J0D01*
G01*
X16539214Y18026879D02*
G75*
G02*
X16789214Y18026879I125000J0D01*
G01*
X16789214Y16612665D02*
G75*
G02*
X16539214Y16612665I-125000J0D01*
G01*
X16539214Y16612665D02*
G75*
G02*
X16789214Y16612665I125000J0D01*
G01*
D12*
X16789213Y15198452D02*
G75*
G02*
X16539215Y15198452I-124999J0D01*
G01*
X16539215Y15198452D02*
G75*
G02*
X16789213Y15198452I124999J0D01*
G01*
D11*
X16789214Y13784238D02*
G75*
G02*
X16539214Y13784238I-125000J0D01*
G01*
X16539214Y13784238D02*
G75*
G02*
X16789214Y13784238I125000J0D01*
G01*
D12*
X16789213Y12370025D02*
G75*
G02*
X16539215Y12370025I-124999J0D01*
G01*
X16539215Y12370025D02*
G75*
G02*
X16789213Y12370025I124999J0D01*
G01*
D11*
X16789214Y10955811D02*
G75*
G02*
X16539214Y10955811I-125000J0D01*
G01*
X16539214Y10955811D02*
G75*
G02*
X16789214Y10955811I125000J0D01*
G01*
D12*
X16789213Y9541598D02*
G75*
G02*
X16539215Y9541598I-124999J0D01*
G01*
X16539215Y9541598D02*
G75*
G02*
X16789213Y9541598I124999J0D01*
G01*
D11*
X16789214Y8127384D02*
G75*
G02*
X16539214Y8127384I-125000J0D01*
G01*
X16539214Y8127384D02*
G75*
G02*
X16789214Y8127384I125000J0D01*
G01*
X16789214Y6713170D02*
G75*
G02*
X16539214Y6713170I-125000J0D01*
G01*
X16539214Y6713170D02*
G75*
G02*
X16789214Y6713170I125000J0D01*
G01*
X16789214Y5298957D02*
G75*
G02*
X16539214Y5298957I-125000J0D01*
G01*
X16539214Y5298957D02*
G75*
G02*
X16789214Y5298957I125000J0D01*
G01*
X17496320Y22976626D02*
G75*
G02*
X17246320Y22976626I-125000J0D01*
G01*
X17246320Y22976626D02*
G75*
G02*
X17496320Y22976626I125000J0D01*
G01*
X17496320Y21562413D02*
G75*
G02*
X17246320Y21562413I-125000J0D01*
G01*
X17246320Y21562413D02*
G75*
G02*
X17496320Y21562413I125000J0D01*
G01*
X17496320Y20148199D02*
G75*
G02*
X17246320Y20148199I-125000J0D01*
G01*
X17246320Y20148199D02*
G75*
G02*
X17496320Y20148199I125000J0D01*
G01*
X17496320Y18733986D02*
G75*
G02*
X17246320Y18733986I-125000J0D01*
G01*
X17246320Y18733986D02*
G75*
G02*
X17496320Y18733986I125000J0D01*
G01*
X17496320Y17319772D02*
G75*
G02*
X17246320Y17319772I-125000J0D01*
G01*
X17246320Y17319772D02*
G75*
G02*
X17496320Y17319772I125000J0D01*
G01*
X17496320Y15905559D02*
G75*
G02*
X17246320Y15905559I-125000J0D01*
G01*
X17246320Y15905559D02*
G75*
G02*
X17496320Y15905559I125000J0D01*
G01*
X17496320Y14491345D02*
G75*
G02*
X17246320Y14491345I-125000J0D01*
G01*
X17246320Y14491345D02*
G75*
G02*
X17496320Y14491345I125000J0D01*
G01*
X17496320Y13077131D02*
G75*
G02*
X17246320Y13077131I-125000J0D01*
G01*
X17246320Y13077131D02*
G75*
G02*
X17496320Y13077131I125000J0D01*
G01*
X17496320Y11662918D02*
G75*
G02*
X17246320Y11662918I-125000J0D01*
G01*
X17246320Y11662918D02*
G75*
G02*
X17496320Y11662918I125000J0D01*
G01*
X17496320Y10248704D02*
G75*
G02*
X17246320Y10248704I-125000J0D01*
G01*
X17246320Y10248704D02*
G75*
G02*
X17496320Y10248704I125000J0D01*
G01*
X17496320Y8834491D02*
G75*
G02*
X17246320Y8834491I-125000J0D01*
G01*
X17246320Y8834491D02*
G75*
G02*
X17496320Y8834491I125000J0D01*
G01*
X17496320Y7420277D02*
G75*
G02*
X17246320Y7420277I-125000J0D01*
G01*
X17246320Y7420277D02*
G75*
G02*
X17496320Y7420277I125000J0D01*
G01*
X17496320Y6006064D02*
G75*
G02*
X17246320Y6006064I-125000J0D01*
G01*
X17246320Y6006064D02*
G75*
G02*
X17496320Y6006064I125000J0D01*
G01*
X18203427Y22269520D02*
G75*
G02*
X17953427Y22269520I-125000J0D01*
G01*
X17953427Y22269520D02*
G75*
G02*
X18203427Y22269520I125000J0D01*
G01*
X18203427Y20855306D02*
G75*
G02*
X17953427Y20855306I-125000J0D01*
G01*
X17953427Y20855306D02*
G75*
G02*
X18203427Y20855306I125000J0D01*
G01*
X18203427Y19441092D02*
G75*
G02*
X17953427Y19441092I-125000J0D01*
G01*
X17953427Y19441092D02*
G75*
G02*
X18203427Y19441092I125000J0D01*
G01*
X18203427Y18026879D02*
G75*
G02*
X17953427Y18026879I-125000J0D01*
G01*
X17953427Y18026879D02*
G75*
G02*
X18203427Y18026879I125000J0D01*
G01*
X18203427Y16612665D02*
G75*
G02*
X17953427Y16612665I-125000J0D01*
G01*
X17953427Y16612665D02*
G75*
G02*
X18203427Y16612665I125000J0D01*
G01*
X18203427Y15198452D02*
G75*
G02*
X17953427Y15198452I-125000J0D01*
G01*
X17953427Y15198452D02*
G75*
G02*
X18203427Y15198452I125000J0D01*
G01*
X18203427Y13784238D02*
G75*
G02*
X17953427Y13784238I-125000J0D01*
G01*
X17953427Y13784238D02*
G75*
G02*
X18203427Y13784238I125000J0D01*
G01*
X18203427Y12370025D02*
G75*
G02*
X17953427Y12370025I-125000J0D01*
G01*
X17953427Y12370025D02*
G75*
G02*
X18203427Y12370025I125000J0D01*
G01*
X18203427Y10955811D02*
G75*
G02*
X17953427Y10955811I-125000J0D01*
G01*
X17953427Y10955811D02*
G75*
G02*
X18203427Y10955811I125000J0D01*
G01*
X18203427Y9541598D02*
G75*
G02*
X17953427Y9541598I-125000J0D01*
G01*
X17953427Y9541598D02*
G75*
G02*
X18203427Y9541598I125000J0D01*
G01*
X18203427Y8127384D02*
G75*
G02*
X17953427Y8127384I-125000J0D01*
G01*
X17953427Y8127384D02*
G75*
G02*
X18203427Y8127384I125000J0D01*
G01*
X18203427Y6713170D02*
G75*
G02*
X17953427Y6713170I-125000J0D01*
G01*
X17953427Y6713170D02*
G75*
G02*
X18203427Y6713170I125000J0D01*
G01*
X18910534Y21562413D02*
G75*
G02*
X18660534Y21562413I-125000J0D01*
G01*
X18660534Y21562413D02*
G75*
G02*
X18910534Y21562413I125000J0D01*
G01*
X18910534Y20148199D02*
G75*
G02*
X18660534Y20148199I-125000J0D01*
G01*
X18660534Y20148199D02*
G75*
G02*
X18910534Y20148199I125000J0D01*
G01*
X18910534Y18733986D02*
G75*
G02*
X18660534Y18733986I-125000J0D01*
G01*
X18660534Y18733986D02*
G75*
G02*
X18910534Y18733986I125000J0D01*
G01*
X18910534Y17319772D02*
G75*
G02*
X18660534Y17319772I-125000J0D01*
G01*
X18660534Y17319772D02*
G75*
G02*
X18910534Y17319772I125000J0D01*
G01*
X18910534Y15905559D02*
G75*
G02*
X18660534Y15905559I-125000J0D01*
G01*
X18660534Y15905559D02*
G75*
G02*
X18910534Y15905559I125000J0D01*
G01*
X18910534Y14491345D02*
G75*
G02*
X18660534Y14491345I-125000J0D01*
G01*
X18660534Y14491345D02*
G75*
G02*
X18910534Y14491345I125000J0D01*
G01*
X18910534Y13077131D02*
G75*
G02*
X18660534Y13077131I-125000J0D01*
G01*
X18660534Y13077131D02*
G75*
G02*
X18910534Y13077131I125000J0D01*
G01*
X18910534Y11662918D02*
G75*
G02*
X18660534Y11662918I-125000J0D01*
G01*
X18660534Y11662918D02*
G75*
G02*
X18910534Y11662918I125000J0D01*
G01*
X18910534Y10248704D02*
G75*
G02*
X18660534Y10248704I-125000J0D01*
G01*
X18660534Y10248704D02*
G75*
G02*
X18910534Y10248704I125000J0D01*
G01*
X18910534Y8834491D02*
G75*
G02*
X18660534Y8834491I-125000J0D01*
G01*
X18660534Y8834491D02*
G75*
G02*
X18910534Y8834491I125000J0D01*
G01*
X18910534Y7420277D02*
G75*
G02*
X18660534Y7420277I-125000J0D01*
G01*
X18660534Y7420277D02*
G75*
G02*
X18910534Y7420277I125000J0D01*
G01*
X19617641Y20855306D02*
G75*
G02*
X19367641Y20855306I-125000J0D01*
G01*
X19367641Y20855306D02*
G75*
G02*
X19617641Y20855306I125000J0D01*
G01*
X19617641Y19441092D02*
G75*
G02*
X19367641Y19441092I-125000J0D01*
G01*
X19367641Y19441092D02*
G75*
G02*
X19617641Y19441092I125000J0D01*
G01*
X19617641Y18026879D02*
G75*
G02*
X19367641Y18026879I-125000J0D01*
G01*
X19367641Y18026879D02*
G75*
G02*
X19617641Y18026879I125000J0D01*
G01*
X19617641Y16612665D02*
G75*
G02*
X19367641Y16612665I-125000J0D01*
G01*
X19367641Y16612665D02*
G75*
G02*
X19617641Y16612665I125000J0D01*
G01*
D12*
X19617640Y15198452D02*
G75*
G02*
X19367642Y15198452I-124999J0D01*
G01*
X19367642Y15198452D02*
G75*
G02*
X19617640Y15198452I124999J0D01*
G01*
D11*
X19617641Y13784238D02*
G75*
G02*
X19367641Y13784238I-125000J0D01*
G01*
X19367641Y13784238D02*
G75*
G02*
X19617641Y13784238I125000J0D01*
G01*
D12*
X19617640Y12370025D02*
G75*
G02*
X19367642Y12370025I-124999J0D01*
G01*
X19367642Y12370025D02*
G75*
G02*
X19617640Y12370025I124999J0D01*
G01*
D11*
X19617641Y10955811D02*
G75*
G02*
X19367641Y10955811I-125000J0D01*
G01*
X19367641Y10955811D02*
G75*
G02*
X19617641Y10955811I125000J0D01*
G01*
D12*
X19617640Y9541598D02*
G75*
G02*
X19367642Y9541598I-124999J0D01*
G01*
X19367642Y9541598D02*
G75*
G02*
X19617640Y9541598I124999J0D01*
G01*
D11*
X19617641Y8127384D02*
G75*
G02*
X19367641Y8127384I-125000J0D01*
G01*
X19367641Y8127384D02*
G75*
G02*
X19617641Y8127384I125000J0D01*
G01*
X20324747Y20148199D02*
G75*
G02*
X20074747Y20148199I-125000J0D01*
G01*
X20074747Y20148199D02*
G75*
G02*
X20324747Y20148199I125000J0D01*
G01*
X20324747Y18733986D02*
G75*
G02*
X20074747Y18733986I-125000J0D01*
G01*
X20074747Y18733986D02*
G75*
G02*
X20324747Y18733986I125000J0D01*
G01*
X20324747Y17319772D02*
G75*
G02*
X20074747Y17319772I-125000J0D01*
G01*
X20074747Y17319772D02*
G75*
G02*
X20324747Y17319772I125000J0D01*
G01*
X20324747Y15905559D02*
G75*
G02*
X20074747Y15905559I-125000J0D01*
G01*
X20074747Y15905559D02*
G75*
G02*
X20324747Y15905559I125000J0D01*
G01*
X20324747Y14491345D02*
G75*
G02*
X20074747Y14491345I-125000J0D01*
G01*
X20074747Y14491345D02*
G75*
G02*
X20324747Y14491345I125000J0D01*
G01*
X20324747Y13077131D02*
G75*
G02*
X20074747Y13077131I-125000J0D01*
G01*
X20074747Y13077131D02*
G75*
G02*
X20324747Y13077131I125000J0D01*
G01*
X20324747Y11662918D02*
G75*
G02*
X20074747Y11662918I-125000J0D01*
G01*
X20074747Y11662918D02*
G75*
G02*
X20324747Y11662918I125000J0D01*
G01*
X20324747Y10248704D02*
G75*
G02*
X20074747Y10248704I-125000J0D01*
G01*
X20074747Y10248704D02*
G75*
G02*
X20324747Y10248704I125000J0D01*
G01*
X20324747Y8834491D02*
G75*
G02*
X20074747Y8834491I-125000J0D01*
G01*
X20074747Y8834491D02*
G75*
G02*
X20324747Y8834491I125000J0D01*
G01*
X21031854Y19441092D02*
G75*
G02*
X20781854Y19441092I-125000J0D01*
G01*
X20781854Y19441092D02*
G75*
G02*
X21031854Y19441092I125000J0D01*
G01*
X21031854Y18026879D02*
G75*
G02*
X20781854Y18026879I-125000J0D01*
G01*
X20781854Y18026879D02*
G75*
G02*
X21031854Y18026879I125000J0D01*
G01*
X21031854Y16612665D02*
G75*
G02*
X20781854Y16612665I-125000J0D01*
G01*
X20781854Y16612665D02*
G75*
G02*
X21031854Y16612665I125000J0D01*
G01*
X21031854Y15198452D02*
G75*
G02*
X20781854Y15198452I-125000J0D01*
G01*
X20781854Y15198452D02*
G75*
G02*
X21031854Y15198452I125000J0D01*
G01*
X21031854Y13784238D02*
G75*
G02*
X20781854Y13784238I-125000J0D01*
G01*
X20781854Y13784238D02*
G75*
G02*
X21031854Y13784238I125000J0D01*
G01*
X21031854Y12370025D02*
G75*
G02*
X20781854Y12370025I-125000J0D01*
G01*
X20781854Y12370025D02*
G75*
G02*
X21031854Y12370025I125000J0D01*
G01*
X21031854Y10955811D02*
G75*
G02*
X20781854Y10955811I-125000J0D01*
G01*
X20781854Y10955811D02*
G75*
G02*
X21031854Y10955811I125000J0D01*
G01*
X21031854Y9541598D02*
G75*
G02*
X20781854Y9541598I-125000J0D01*
G01*
X20781854Y9541598D02*
G75*
G02*
X21031854Y9541598I125000J0D01*
G01*
X21738961Y18733986D02*
G75*
G02*
X21488961Y18733986I-125000J0D01*
G01*
X21488961Y18733986D02*
G75*
G02*
X21738961Y18733986I125000J0D01*
G01*
X21738961Y17319772D02*
G75*
G02*
X21488961Y17319772I-125000J0D01*
G01*
X21488961Y17319772D02*
G75*
G02*
X21738961Y17319772I125000J0D01*
G01*
X21738961Y15905559D02*
G75*
G02*
X21488961Y15905559I-125000J0D01*
G01*
X21488961Y15905559D02*
G75*
G02*
X21738961Y15905559I125000J0D01*
G01*
X21738961Y14491345D02*
G75*
G02*
X21488961Y14491345I-125000J0D01*
G01*
X21488961Y14491345D02*
G75*
G02*
X21738961Y14491345I125000J0D01*
G01*
X21738961Y13077131D02*
G75*
G02*
X21488961Y13077131I-125000J0D01*
G01*
X21488961Y13077131D02*
G75*
G02*
X21738961Y13077131I125000J0D01*
G01*
X21738961Y11662918D02*
G75*
G02*
X21488961Y11662918I-125000J0D01*
G01*
X21488961Y11662918D02*
G75*
G02*
X21738961Y11662918I125000J0D01*
G01*
X21738961Y10248704D02*
G75*
G02*
X21488961Y10248704I-125000J0D01*
G01*
X21488961Y10248704D02*
G75*
G02*
X21738961Y10248704I125000J0D01*
G01*
X22446068Y18026879D02*
G75*
G02*
X22196068Y18026879I-125000J0D01*
G01*
X22196068Y18026879D02*
G75*
G02*
X22446068Y18026879I125000J0D01*
G01*
X22446068Y16612665D02*
G75*
G02*
X22196068Y16612665I-125000J0D01*
G01*
X22196068Y16612665D02*
G75*
G02*
X22446068Y16612665I125000J0D01*
G01*
X22446068Y15198452D02*
G75*
G02*
X22196068Y15198452I-125000J0D01*
G01*
X22196068Y15198452D02*
G75*
G02*
X22446068Y15198452I125000J0D01*
G01*
X22446068Y13784238D02*
G75*
G02*
X22196068Y13784238I-125000J0D01*
G01*
X22196068Y13784238D02*
G75*
G02*
X22446068Y13784238I125000J0D01*
G01*
X22446068Y12370025D02*
G75*
G02*
X22196068Y12370025I-125000J0D01*
G01*
X22196068Y12370025D02*
G75*
G02*
X22446068Y12370025I125000J0D01*
G01*
X22446068Y10955811D02*
G75*
G02*
X22196068Y10955811I-125000J0D01*
G01*
X22196068Y10955811D02*
G75*
G02*
X22446068Y10955811I125000J0D01*
G01*
X23153175Y17319772D02*
G75*
G02*
X22903175Y17319772I-125000J0D01*
G01*
X22903175Y17319772D02*
G75*
G02*
X23153175Y17319772I125000J0D01*
G01*
D12*
X23153174Y15905559D02*
G75*
G02*
X22903176Y15905559I-124999J0D01*
G01*
X22903176Y15905559D02*
G75*
G02*
X23153174Y15905559I124999J0D01*
G01*
D11*
X23153175Y14491345D02*
G75*
G02*
X22903175Y14491345I-125000J0D01*
G01*
X22903175Y14491345D02*
G75*
G02*
X23153175Y14491345I125000J0D01*
G01*
X23153175Y13077131D02*
G75*
G02*
X22903175Y13077131I-125000J0D01*
G01*
X22903175Y13077131D02*
G75*
G02*
X23153175Y13077131I125000J0D01*
G01*
X23153175Y11662918D02*
G75*
G02*
X22903175Y11662918I-125000J0D01*
G01*
X22903175Y11662918D02*
G75*
G02*
X23153175Y11662918I125000J0D01*
G01*
X23860281Y16612665D02*
G75*
G02*
X23610281Y16612665I-125000J0D01*
G01*
X23610281Y16612665D02*
G75*
G02*
X23860281Y16612665I125000J0D01*
G01*
X23860281Y15198452D02*
G75*
G02*
X23610281Y15198452I-125000J0D01*
G01*
X23610281Y15198452D02*
G75*
G02*
X23860281Y15198452I125000J0D01*
G01*
X23860281Y13784238D02*
G75*
G02*
X23610281Y13784238I-125000J0D01*
G01*
X23610281Y13784238D02*
G75*
G02*
X23860281Y13784238I125000J0D01*
G01*
X23860281Y12370025D02*
G75*
G02*
X23610281Y12370025I-125000J0D01*
G01*
X23610281Y12370025D02*
G75*
G02*
X23860281Y12370025I125000J0D01*
G01*
X24567388Y15905559D02*
G75*
G02*
X24317388Y15905559I-125000J0D01*
G01*
X24317388Y15905559D02*
G75*
G02*
X24567388Y15905559I125000J0D01*
G01*
X24567388Y14491345D02*
G75*
G02*
X24317388Y14491345I-125000J0D01*
G01*
X24317388Y14491345D02*
G75*
G02*
X24567388Y14491345I125000J0D01*
G01*
X24567388Y13077131D02*
G75*
G02*
X24317388Y13077131I-125000J0D01*
G01*
X24317388Y13077131D02*
G75*
G02*
X24567388Y13077131I125000J0D01*
G01*
X25274495Y15198452D02*
G75*
G02*
X25024495Y15198452I-125000J0D01*
G01*
X25024495Y15198452D02*
G75*
G02*
X25274495Y15198452I125000J0D01*
G01*
X25274495Y13784238D02*
G75*
G02*
X25024495Y13784238I-125000J0D01*
G01*
X25024495Y13784238D02*
G75*
G02*
X25274495Y13784238I125000J0D01*
G01*
X25981602Y14491345D02*
G75*
G02*
X25731602Y14491345I-125000J0D01*
G01*
X25731602Y14491345D02*
G75*
G02*
X25981602Y14491345I125000J0D01*
G01*
%TD*%
D13*
%TO.C,R706*%
X29940000Y7341345D03*
X30960000Y7341345D03*
%TD*%
%TO.C,R300*%
X45340000Y9391345D03*
X46360000Y9391345D03*
%TD*%
D14*
%TO.C,R107*%
X36250000Y26510000D03*
X36250000Y25490000D03*
%TD*%
D15*
%TO.C,H103*%
X42600000Y5000000D03*
X43302944Y6697056D03*
X43302944Y3302944D03*
X45000000Y7400000D03*
D16*
X45000000Y5000000D03*
D15*
X45000000Y2600000D03*
X46697056Y6697056D03*
X46697056Y3302944D03*
X47400000Y5000000D03*
%TD*%
D13*
%TO.C,R704*%
X36090000Y7341345D03*
X37110000Y7341345D03*
%TD*%
D17*
%TO.C,R108*%
X35250000Y25490000D03*
X35250000Y26510000D03*
%TD*%
D18*
%TO.C,D707*%
X31187500Y4091345D03*
X29612500Y4091345D03*
%TD*%
D19*
%TO.C,C601*%
X2032304Y13587863D03*
X1353482Y12909041D03*
%TD*%
D20*
%TO.C,L102*%
X40400000Y18325000D03*
X40400000Y16175000D03*
%TD*%
D13*
%TO.C,R302*%
X43240000Y10396345D03*
X44260000Y10396345D03*
%TD*%
D21*
%TO.C,C122*%
X35320000Y19641345D03*
X36280000Y19641345D03*
%TD*%
D22*
%TO.C,C106*%
X40300000Y38750000D03*
X42200000Y38750000D03*
%TD*%
D17*
%TO.C,R109*%
X36250000Y23490000D03*
X36250000Y24510000D03*
%TD*%
D18*
%TO.C,D705*%
X40387500Y5941345D03*
X38812500Y5941345D03*
%TD*%
%TO.C,D700*%
X37287500Y4083327D03*
X35712500Y4083327D03*
%TD*%
%TO.C,D703*%
X37337500Y5941345D03*
X35762500Y5941345D03*
%TD*%
D19*
%TO.C,C611*%
X12132311Y3437856D03*
X11453489Y2759034D03*
%TD*%
D23*
%TO.C,C503*%
X23617696Y20244827D03*
X24296518Y20923649D03*
%TD*%
D15*
%TO.C,H101*%
X2600000Y45000000D03*
X3302944Y46697056D03*
X3302944Y43302944D03*
X5000000Y47400000D03*
D16*
X5000000Y45000000D03*
D15*
X5000000Y42600000D03*
X6697056Y46697056D03*
X6697056Y43302944D03*
X7400000Y45000000D03*
%TD*%
D13*
%TO.C,R708*%
X39090000Y7341345D03*
X40110000Y7341345D03*
%TD*%
D17*
%TO.C,R423*%
X7050000Y40381345D03*
X7050000Y41401345D03*
%TD*%
D24*
%TO.C,C610*%
X18168036Y2850349D03*
X19264052Y1754333D03*
%TD*%
D21*
%TO.C,C115*%
X35320000Y17641344D03*
X36280000Y17641344D03*
%TD*%
D25*
%TO.C,L101*%
X46600000Y32200000D03*
X46600000Y36300000D03*
%TD*%
D26*
%TO.C,C105*%
X38480000Y24250000D03*
X37520000Y24250000D03*
%TD*%
D13*
%TO.C,R105*%
X47490000Y24500000D03*
X48510000Y24500000D03*
%TD*%
%TO.C,R104*%
X47490000Y25500000D03*
X48510000Y25500000D03*
%TD*%
D26*
%TO.C,C120*%
X38480000Y26750000D03*
X37520000Y26750000D03*
%TD*%
D13*
%TO.C,R111*%
X37490000Y23250000D03*
X38510000Y23250000D03*
%TD*%
D22*
%TO.C,C108*%
X40300000Y14250000D03*
X42200000Y14250000D03*
%TD*%
D19*
%TO.C,C612*%
X12839411Y2730756D03*
X12160589Y2051934D03*
%TD*%
D26*
%TO.C,C114*%
X30280000Y18641345D03*
X29320000Y18641345D03*
%TD*%
D27*
%TO.C,C107*%
X45700000Y38750000D03*
X43800000Y38750000D03*
%TD*%
D28*
%TO.C,U500*%
X21000000Y38200000D03*
X21000000Y37400000D03*
X21000000Y36600000D03*
X21000000Y33400000D03*
X21000000Y32600000D03*
X21000000Y31800000D03*
X20200000Y38200000D03*
X20200000Y37400000D03*
X20200000Y36600000D03*
X20200000Y33400000D03*
X20200000Y32600000D03*
X20200000Y31800000D03*
X19400000Y38200000D03*
X19400000Y37400000D03*
X19400000Y36600000D03*
X19400000Y33400000D03*
X19400000Y32600000D03*
X19400000Y31800000D03*
X18600000Y38200000D03*
X18600000Y37400000D03*
X18600000Y36600000D03*
X18600000Y33400000D03*
X18600000Y32600000D03*
X18600000Y31800000D03*
X17800000Y38200000D03*
X17800000Y37400000D03*
X17800000Y36600000D03*
X17800000Y33400000D03*
X17800000Y32600000D03*
X17800000Y31800000D03*
X17000000Y38200000D03*
X17000000Y37400000D03*
X17000000Y36600000D03*
X17000000Y33400000D03*
X17000000Y32600000D03*
X17000000Y31800000D03*
X16200000Y38200000D03*
X16200000Y37400000D03*
X16200000Y36600000D03*
X16200000Y33400000D03*
X16200000Y32600000D03*
X16200000Y31800000D03*
X15400000Y38200000D03*
X15400000Y37400000D03*
X15400000Y36600000D03*
X15400000Y33400000D03*
X15400000Y32600000D03*
X15400000Y31800000D03*
X14600000Y38200000D03*
X14600000Y37400000D03*
X14600000Y36600000D03*
X14600000Y33400000D03*
X14600000Y32600000D03*
X14600000Y31800000D03*
X13800000Y38200000D03*
X13800000Y37400000D03*
X13800000Y36600000D03*
X13800000Y33400000D03*
X13800000Y32600000D03*
X13800000Y31800000D03*
X13000000Y38200000D03*
X13000000Y37400000D03*
X13000000Y36600000D03*
X13000000Y33400000D03*
X13000000Y32600000D03*
X13000000Y31800000D03*
X12200000Y38200000D03*
X12200000Y37400000D03*
X12200000Y36600000D03*
X12200000Y33400000D03*
X12200000Y32600000D03*
X12200000Y31800000D03*
X11400000Y38200000D03*
X11400000Y37400000D03*
X11400000Y36600000D03*
X11400000Y33400000D03*
X11400000Y32600000D03*
X11400000Y31800000D03*
X10600000Y38200000D03*
X10600000Y37400000D03*
X10600000Y36600000D03*
X10600000Y33400000D03*
X10600000Y32600000D03*
X10600000Y31800000D03*
X9800000Y38200000D03*
X9800000Y37400000D03*
X9800000Y36600000D03*
X9800000Y33400000D03*
X9800000Y32600000D03*
X9800000Y31800000D03*
X9000000Y38200000D03*
X9000000Y37400000D03*
X9000000Y36600000D03*
X9000000Y33400000D03*
X9000000Y32600000D03*
X9000000Y31800000D03*
%TD*%
D29*
%TO.C,U100*%
X40750000Y22565000D03*
X41250000Y22565000D03*
X41750000Y22565000D03*
X42250000Y22565000D03*
X42750000Y22565000D03*
X43250000Y22565000D03*
X43750000Y22565000D03*
X44250000Y22565000D03*
X44750000Y22565000D03*
X45250000Y22565000D03*
D30*
X45935000Y23250000D03*
X45935000Y23750000D03*
X45935000Y24250000D03*
X45935000Y24750000D03*
X45935000Y25250000D03*
X45935000Y25750000D03*
X45935000Y26250000D03*
X45935000Y26750000D03*
X45935000Y27250000D03*
X45935000Y27750000D03*
D29*
X45250000Y28435000D03*
X44750000Y28435000D03*
X44250000Y28435000D03*
X43750000Y28435000D03*
X43250000Y28435000D03*
X42750000Y28435000D03*
X42250000Y28435000D03*
X41750000Y28435000D03*
X41250000Y28435000D03*
X40750000Y28435000D03*
D30*
X40065000Y27750000D03*
X40065000Y27250000D03*
X40065000Y26750000D03*
X40065000Y26250000D03*
X40065000Y25750000D03*
X40065000Y25250000D03*
X40065000Y24750000D03*
X40065000Y24250000D03*
X40065000Y23750000D03*
X40065000Y23250000D03*
D31*
X43000000Y25500000D03*
%TD*%
D18*
%TO.C,D706*%
X40387500Y4091345D03*
X38812500Y4091345D03*
%TD*%
D24*
%TO.C,C512*%
X21401992Y6139353D03*
X22498008Y5043337D03*
%TD*%
D32*
%TO.C,C508*%
X22210589Y7330756D03*
X22889411Y6651934D03*
%TD*%
D18*
%TO.C,D702*%
X34287500Y5941345D03*
X32712500Y5941345D03*
%TD*%
D26*
%TO.C,C408*%
X34380000Y19641346D03*
X33420000Y19641346D03*
%TD*%
D18*
%TO.C,D701*%
X34260922Y4083327D03*
X32685922Y4083327D03*
%TD*%
D33*
%TO.C,C511*%
X25909099Y18336230D03*
X27005115Y19432246D03*
%TD*%
D34*
%TO.C,C101*%
X39775000Y20000000D03*
X38225000Y20000000D03*
%TD*%
D13*
%TO.C,R711*%
X29940000Y2691345D03*
X30960000Y2691345D03*
%TD*%
D26*
%TO.C,C112*%
X38480000Y21250000D03*
X37520000Y21250000D03*
%TD*%
D35*
%TO.C,C609*%
X11033508Y4152953D03*
X9937492Y3056937D03*
%TD*%
D21*
%TO.C,C410*%
X15495000Y40916345D03*
X16455000Y40916345D03*
%TD*%
D19*
%TO.C,C602*%
X2739411Y12880756D03*
X2060589Y12201934D03*
%TD*%
D36*
%TO.C,C422*%
X18400000Y40020000D03*
X18400000Y40980000D03*
%TD*%
D23*
%TO.C,C500*%
X22910589Y20951934D03*
X23589411Y21630756D03*
%TD*%
D37*
%TO.C,R115*%
X38510000Y27750000D03*
X37490000Y27750000D03*
%TD*%
D25*
%TO.C,L100*%
X39400000Y32200000D03*
X39400000Y36300000D03*
%TD*%
D36*
%TO.C,C417*%
X17400000Y40020000D03*
X17400000Y40980000D03*
%TD*%
D21*
%TO.C,C119*%
X35320000Y18641345D03*
X36280000Y18641345D03*
%TD*%
D14*
%TO.C,R121*%
X33250000Y14651345D03*
X33250000Y13631345D03*
%TD*%
D36*
%TO.C,C413*%
X19400001Y40019999D03*
X19400001Y40979999D03*
%TD*%
D13*
%TO.C,R301*%
X45340000Y10400000D03*
X46360000Y10400000D03*
%TD*%
D15*
%TO.C,H100*%
X42600000Y45000000D03*
X43302944Y46697056D03*
X43302944Y43302944D03*
X45000000Y47400000D03*
D16*
X45000000Y45000000D03*
D15*
X45000000Y42600000D03*
X46697056Y46697056D03*
X46697056Y43302944D03*
X47400000Y45000000D03*
%TD*%
D35*
%TO.C,C606*%
X4498008Y10689353D03*
X3401992Y9593337D03*
%TD*%
D26*
%TO.C,C121*%
X30280000Y15641345D03*
X29320000Y15641345D03*
%TD*%
D32*
%TO.C,C510*%
X27403482Y12523649D03*
X28082304Y11844827D03*
%TD*%
D38*
%TO.C,C100*%
X46225000Y20000000D03*
X47775000Y20000000D03*
%TD*%
D37*
%TO.C,R106*%
X38510000Y25750000D03*
X37490000Y25750000D03*
%TD*%
D36*
%TO.C,C431*%
X20400000Y40020000D03*
X20400000Y40980000D03*
%TD*%
D39*
%TO.C,U1*%
X4643398Y14491345D03*
X5350505Y15198452D03*
X6057612Y15905559D03*
X6764719Y16612665D03*
X7471825Y17319772D03*
X8178932Y18026879D03*
X8886039Y18733986D03*
X9593146Y19441092D03*
X10300253Y20148199D03*
X11007359Y20855306D03*
X11714466Y21562413D03*
X12421573Y22269520D03*
X13128680Y22976626D03*
X13835786Y23683733D03*
X14542893Y24390840D03*
X15250000Y25097947D03*
X5350505Y13784238D03*
X6057612Y14491345D03*
X6764719Y15198452D03*
X7471825Y15905559D03*
X8178932Y16612665D03*
X8886039Y17319772D03*
X9593146Y18026879D03*
X10300253Y18733986D03*
X11007359Y19441092D03*
X11714466Y20148199D03*
X12421573Y20855306D03*
X13128680Y21562413D03*
X13835786Y22269520D03*
X14542893Y22976626D03*
X15250000Y23683733D03*
X15957107Y24390840D03*
X6057612Y13077131D03*
X6764719Y13784238D03*
X7471825Y14491345D03*
X8178932Y15198452D03*
X8886039Y15905559D03*
X9593146Y16612665D03*
X10300253Y17319772D03*
X11007359Y18026879D03*
X11714466Y18733986D03*
X12421573Y19441092D03*
X13128680Y20148199D03*
X13835786Y20855306D03*
X14542893Y21562413D03*
X15250000Y22269520D03*
X15957107Y22976626D03*
X16664214Y23683733D03*
X6764719Y12370025D03*
X7471825Y13077131D03*
X8178932Y13784238D03*
X8886039Y14491345D03*
X9593146Y15198452D03*
X10300253Y15905559D03*
X11007359Y16612665D03*
X11714466Y17319772D03*
X12421573Y18026879D03*
X13128680Y18733986D03*
X13835786Y19441092D03*
X14542893Y20148199D03*
X15250000Y20855306D03*
X15957107Y21562413D03*
X16664214Y22269520D03*
X17371320Y22976626D03*
X7471825Y11662918D03*
X8178932Y12370025D03*
X8886039Y13077131D03*
X9593146Y13784238D03*
X10300253Y14491345D03*
X11007359Y15198452D03*
X11714466Y15905559D03*
X12421573Y16612665D03*
X13128680Y17319772D03*
X13835786Y18026879D03*
X14542893Y18733986D03*
X15250000Y19441092D03*
X15957107Y20148199D03*
X16664214Y20855306D03*
X17371320Y21562413D03*
X18078427Y22269520D03*
X8178932Y10955811D03*
X8886039Y11662918D03*
X9593146Y12370025D03*
X10300253Y13077131D03*
X11007359Y13784238D03*
X11714466Y14491345D03*
X12421573Y15198452D03*
X13128680Y15905559D03*
X13835786Y16612665D03*
X14542893Y17319772D03*
X15250000Y18026879D03*
X15957107Y18733986D03*
X16664214Y19441092D03*
X17371320Y20148199D03*
X18078427Y20855306D03*
X18785534Y21562413D03*
X8886039Y10248704D03*
X9593146Y10955811D03*
X10300253Y11662918D03*
X11007359Y12370025D03*
X11714466Y13077131D03*
X12421573Y13784238D03*
X13128680Y14491345D03*
X13835786Y15198452D03*
X14542893Y15905559D03*
X15250000Y16612665D03*
X15957107Y17319772D03*
X16664214Y18026879D03*
X17371320Y18733986D03*
X18078427Y19441092D03*
X18785534Y20148199D03*
X19492641Y20855306D03*
X9593146Y9541598D03*
X10300253Y10248704D03*
X11007359Y10955811D03*
X11714466Y11662918D03*
X12421573Y12370025D03*
X13128680Y13077131D03*
X13835786Y13784238D03*
X14542893Y14491345D03*
X15250000Y15198452D03*
X15957107Y15905559D03*
X16664214Y16612665D03*
X17371320Y17319772D03*
X18078427Y18026879D03*
X18785534Y18733986D03*
X19492641Y19441092D03*
X20199747Y20148199D03*
X10300253Y8834491D03*
X11007359Y9541598D03*
X11714466Y10248704D03*
X12421573Y10955811D03*
X13128680Y11662918D03*
X13835786Y12370025D03*
X14542893Y13077131D03*
X15250000Y13784238D03*
X15957107Y14491345D03*
X16664214Y15198452D03*
X17371320Y15905559D03*
X18078427Y16612665D03*
X18785534Y17319772D03*
X19492641Y18026879D03*
X20199747Y18733986D03*
X20906854Y19441092D03*
X11007359Y8127384D03*
X11714466Y8834491D03*
X12421573Y9541598D03*
X13128680Y10248704D03*
X13835786Y10955811D03*
X14542893Y11662918D03*
X15250000Y12370025D03*
X15957107Y13077131D03*
X16664214Y13784238D03*
X17371320Y14491345D03*
X18078427Y15198452D03*
X18785534Y15905559D03*
X19492641Y16612665D03*
X20199747Y17319772D03*
X20906854Y18026879D03*
X21613961Y18733986D03*
X11714466Y7420277D03*
X12421573Y8127384D03*
X13128680Y8834491D03*
X13835786Y9541598D03*
X14542893Y10248704D03*
X15250000Y10955811D03*
X15957107Y11662918D03*
X16664214Y12370025D03*
X17371320Y13077131D03*
X18078427Y13784238D03*
X18785534Y14491345D03*
X19492641Y15198452D03*
X20199747Y15905559D03*
X20906854Y16612665D03*
X21613961Y17319772D03*
X22321068Y18026879D03*
X12421573Y6713170D03*
X13128680Y7420277D03*
X13835786Y8127384D03*
X14542893Y8834491D03*
X15250000Y9541598D03*
X15957107Y10248704D03*
X16664214Y10955811D03*
X17371320Y11662918D03*
X18078427Y12370025D03*
X18785534Y13077131D03*
X19492641Y13784238D03*
X20199747Y14491345D03*
X20906854Y15198452D03*
X21613961Y15905559D03*
X22321068Y16612665D03*
X23028175Y17319772D03*
X13128680Y6006064D03*
X13835786Y6713170D03*
X14542893Y7420277D03*
X15250000Y8127384D03*
X15957107Y8834491D03*
X16664214Y9541598D03*
X17371320Y10248704D03*
X18078427Y10955811D03*
X18785534Y11662918D03*
X19492641Y12370025D03*
X20199747Y13077131D03*
X20906854Y13784238D03*
X21613961Y14491345D03*
X22321068Y15198452D03*
X23028175Y15905559D03*
X23735281Y16612665D03*
X13835786Y5298957D03*
X14542893Y6006064D03*
X15250000Y6713170D03*
X15957107Y7420277D03*
X16664214Y8127384D03*
X17371320Y8834491D03*
X18078427Y9541598D03*
X18785534Y10248704D03*
X19492641Y10955811D03*
X20199747Y11662918D03*
X20906854Y12370025D03*
X21613961Y13077131D03*
X22321068Y13784238D03*
X23028175Y14491345D03*
X23735281Y15198452D03*
X24442388Y15905559D03*
X14542893Y4591850D03*
X15250000Y5298957D03*
X15957107Y6006064D03*
X16664214Y6713170D03*
X17371320Y7420277D03*
X18078427Y8127384D03*
X18785534Y8834491D03*
X19492641Y9541598D03*
X20199747Y10248704D03*
X20906854Y10955811D03*
X21613961Y11662918D03*
X22321068Y12370025D03*
X23028175Y13077131D03*
X23735281Y13784238D03*
X24442388Y14491345D03*
X25149495Y15198452D03*
X15250000Y3884743D03*
X15957107Y4591850D03*
X16664214Y5298957D03*
X17371320Y6006064D03*
X18078427Y6713170D03*
X18785534Y7420277D03*
X19492641Y8127384D03*
X20199747Y8834491D03*
X20906854Y9541598D03*
X21613961Y10248704D03*
X22321068Y10955811D03*
X23028175Y11662918D03*
X23735281Y12370025D03*
X24442388Y13077131D03*
X25149495Y13784238D03*
X25856602Y14491345D03*
%TD*%
D24*
%TO.C,C513*%
X20306966Y5044327D03*
X21402982Y3948311D03*
%TD*%
D17*
%TO.C,R122*%
X34250000Y13631345D03*
X34250000Y14651345D03*
%TD*%
D38*
%TO.C,C102*%
X47225000Y29950000D03*
X48775000Y29950000D03*
%TD*%
D21*
%TO.C,C113*%
X47520000Y21250000D03*
X48480000Y21250000D03*
%TD*%
D33*
%TO.C,C506*%
X24709099Y19536230D03*
X25805115Y20632246D03*
%TD*%
D13*
%TO.C,R701*%
X33010877Y2630229D03*
X34030877Y2630229D03*
%TD*%
D36*
%TO.C,C412*%
X22900000Y31720000D03*
X22900000Y32680000D03*
%TD*%
D13*
%TO.C,R702*%
X32990000Y7341345D03*
X34010000Y7341345D03*
%TD*%
D19*
%TO.C,C604*%
X10339411Y5280756D03*
X9660589Y4601934D03*
%TD*%
D14*
%TO.C,R110*%
X35250000Y24510000D03*
X35250000Y23490000D03*
%TD*%
D19*
%TO.C,C603*%
X5589411Y10030756D03*
X4910589Y9351934D03*
%TD*%
D21*
%TO.C,C117*%
X35320000Y15391345D03*
X36280000Y15391345D03*
%TD*%
D37*
%TO.C,R112*%
X38510000Y22250000D03*
X37490000Y22250000D03*
%TD*%
D32*
%TO.C,C507*%
X22917696Y8037863D03*
X23596518Y7359041D03*
%TD*%
D13*
%TO.C,R700*%
X36183000Y2641345D03*
X37203000Y2641345D03*
%TD*%
D32*
%TO.C,C509*%
X28110589Y13230756D03*
X28789411Y12551934D03*
%TD*%
D13*
%TO.C,R220*%
X29290000Y17641345D03*
X30310000Y17641345D03*
%TD*%
%TO.C,R116*%
X47490000Y27250000D03*
X48510000Y27250000D03*
%TD*%
D21*
%TO.C,C110*%
X37520000Y28750000D03*
X38480000Y28750000D03*
%TD*%
D18*
%TO.C,D704*%
X31187500Y5941345D03*
X29612500Y5941345D03*
%TD*%
D37*
%TO.C,R117*%
X40510000Y21250000D03*
X39490000Y21250000D03*
%TD*%
D13*
%TO.C,R710*%
X39090000Y2641345D03*
X40110000Y2641345D03*
%TD*%
D35*
%TO.C,C600*%
X3398008Y11789353D03*
X2301992Y10693337D03*
%TD*%
D14*
%TO.C,R600*%
X25255000Y3301345D03*
X25255000Y2281345D03*
%TD*%
D13*
%TO.C,R114*%
X47490000Y23500000D03*
X48510000Y23500000D03*
%TD*%
D15*
%TO.C,H102*%
X2600000Y5000000D03*
X3302944Y6697056D03*
X3302944Y3302944D03*
X5000000Y7400000D03*
D16*
X5000000Y5000000D03*
D15*
X5000000Y2600000D03*
X6697056Y6697056D03*
X6697056Y3302944D03*
X7400000Y5000000D03*
%TD*%
D26*
%TO.C,C111*%
X48480000Y28250000D03*
X47520000Y28250000D03*
%TD*%
D37*
%TO.C,R113*%
X48510000Y22500000D03*
X47490000Y22500000D03*
%TD*%
D13*
%TO.C,R118*%
X45490000Y21250000D03*
X46510000Y21250000D03*
%TD*%
D26*
%TO.C,C411*%
X16455000Y39991345D03*
X15495000Y39991345D03*
%TD*%
D13*
%TO.C,R123*%
X29290000Y16641345D03*
X30310000Y16641345D03*
%TD*%
D20*
%TO.C,L103*%
X45600000Y18325000D03*
X45600000Y16175000D03*
%TD*%
D19*
%TO.C,C514*%
X25339411Y6839411D03*
X24660589Y6160589D03*
%TD*%
D40*
%TO.C,C116*%
X32250000Y14621345D03*
X32250000Y13661345D03*
%TD*%
D36*
%TO.C,C421*%
X21400000Y40020000D03*
X21400000Y40980000D03*
%TD*%
D24*
%TO.C,C607*%
X19251992Y3939353D03*
X20348008Y2843337D03*
%TD*%
D27*
%TO.C,C109*%
X45700000Y14250000D03*
X43800000Y14250000D03*
%TD*%
D21*
%TO.C,C118*%
X35320000Y16491345D03*
X36280000Y16491345D03*
%TD*%
D17*
%TO.C,R424*%
X8050000Y40381345D03*
X8050000Y41401345D03*
%TD*%
D34*
%TO.C,C103*%
X38775000Y29950000D03*
X37225000Y29950000D03*
%TD*%
D41*
%TO.C,Y500*%
X27564214Y9120634D03*
X26079289Y10605559D03*
X24735786Y9262056D03*
X26220711Y7777131D03*
%TD*%
M02*
