%TF.GenerationSoftware,KiCad,Pcbnew,10.0.1*%
%TF.CreationDate,2026-09-25T02:30:35+01:00*%
%TF.ProjectId,FPGA_AURA,46504741-5f41-4555-9241-2e6b69636164,Rev A*%
%TF.SameCoordinates,PX5f5e100PY5f5e100*%
%TF.FileFunction,OtherDrawing,Comment*%
%FSLAX46Y46*%
G04 Gerber Fmt 4.6, Leading zero omitted, Abs format (unit mm)*
G04 Created by KiCad (PCBNEW 10.0.1) date 2026-09-25 02:30:35*
%MOMM*%
%LPD*%
G01*
G04 APERTURE LIST*
%ADD10C,0.150000*%
%ADD11C,0.100000*%
%ADD12C,0.250000*%
G04 APERTURE END LIST*
D10*
X-6695181Y47738096D02*
X-6695181Y47261906D01*
X-6695181Y47261906D02*
X-6218991Y47214287D01*
X-6218991Y47214287D02*
X-6266610Y47261906D01*
X-6266610Y47261906D02*
X-6314229Y47357144D01*
X-6314229Y47357144D02*
X-6314229Y47595239D01*
X-6314229Y47595239D02*
X-6266610Y47690477D01*
X-6266610Y47690477D02*
X-6218991Y47738096D01*
X-6218991Y47738096D02*
X-6123753Y47785715D01*
X-6123753Y47785715D02*
X-5885658Y47785715D01*
X-5885658Y47785715D02*
X-5790420Y47738096D01*
X-5790420Y47738096D02*
X-5742800Y47690477D01*
X-5742800Y47690477D02*
X-5695181Y47595239D01*
X-5695181Y47595239D02*
X-5695181Y47357144D01*
X-5695181Y47357144D02*
X-5742800Y47261906D01*
X-5742800Y47261906D02*
X-5790420Y47214287D01*
D11*
X4500000Y45000000D02*
X-5586420Y45000000D01*
X-5586420Y50000000D02*
X4500000Y50000000D01*
X-5000000Y45000000D02*
X-5000000Y50000000D01*
X-5000000Y45000000D02*
X-5586421Y46126504D01*
X-5000000Y45000000D02*
X-4413579Y46126504D01*
X-5000000Y50000000D02*
X-4413579Y48873496D01*
X-5000000Y50000000D02*
X-5586421Y48873496D01*
D10*
X37309523Y-4304819D02*
X36738095Y-4304819D01*
X37023809Y-4304819D02*
X37023809Y-3304819D01*
X37023809Y-3304819D02*
X36928571Y-3447676D01*
X36928571Y-3447676D02*
X36833333Y-3542914D01*
X36833333Y-3542914D02*
X36738095Y-3590533D01*
X38214285Y-3304819D02*
X37738095Y-3304819D01*
X37738095Y-3304819D02*
X37690476Y-3781009D01*
X37690476Y-3781009D02*
X37738095Y-3733390D01*
X37738095Y-3733390D02*
X37833333Y-3685771D01*
X37833333Y-3685771D02*
X38071428Y-3685771D01*
X38071428Y-3685771D02*
X38166666Y-3733390D01*
X38166666Y-3733390D02*
X38214285Y-3781009D01*
X38214285Y-3781009D02*
X38261904Y-3876247D01*
X38261904Y-3876247D02*
X38261904Y-4114342D01*
X38261904Y-4114342D02*
X38214285Y-4209580D01*
X38214285Y-4209580D02*
X38166666Y-4257200D01*
X38166666Y-4257200D02*
X38071428Y-4304819D01*
X38071428Y-4304819D02*
X37833333Y-4304819D01*
X37833333Y-4304819D02*
X37738095Y-4257200D01*
X37738095Y-4257200D02*
X37690476Y-4209580D01*
D11*
X30000000Y4500000D02*
X30000000Y-5586420D01*
X45000000Y-5586420D02*
X45000000Y4500000D01*
X30000000Y-5000000D02*
X45000000Y-5000000D01*
X30000000Y-5000000D02*
X31126504Y-4413579D01*
X30000000Y-5000000D02*
X31126504Y-5586421D01*
X45000000Y-5000000D02*
X43873496Y-5586421D01*
X45000000Y-5000000D02*
X43873496Y-4413579D01*
D10*
X-6361848Y24714286D02*
X-5695181Y24714286D01*
X-6742800Y24476191D02*
X-6028515Y24238096D01*
X-6028515Y24238096D02*
X-6028515Y24857143D01*
X-6695181Y25428572D02*
X-6695181Y25523810D01*
X-6695181Y25523810D02*
X-6647562Y25619048D01*
X-6647562Y25619048D02*
X-6599943Y25666667D01*
X-6599943Y25666667D02*
X-6504705Y25714286D01*
X-6504705Y25714286D02*
X-6314229Y25761905D01*
X-6314229Y25761905D02*
X-6076134Y25761905D01*
X-6076134Y25761905D02*
X-5885658Y25714286D01*
X-5885658Y25714286D02*
X-5790420Y25666667D01*
X-5790420Y25666667D02*
X-5742800Y25619048D01*
X-5742800Y25619048D02*
X-5695181Y25523810D01*
X-5695181Y25523810D02*
X-5695181Y25428572D01*
X-5695181Y25428572D02*
X-5742800Y25333334D01*
X-5742800Y25333334D02*
X-5790420Y25285715D01*
X-5790420Y25285715D02*
X-5885658Y25238096D01*
X-5885658Y25238096D02*
X-6076134Y25190477D01*
X-6076134Y25190477D02*
X-6314229Y25190477D01*
X-6314229Y25190477D02*
X-6504705Y25238096D01*
X-6504705Y25238096D02*
X-6599943Y25285715D01*
X-6599943Y25285715D02*
X-6647562Y25333334D01*
X-6647562Y25333334D02*
X-6695181Y25428572D01*
D11*
X4500000Y5000000D02*
X-5586420Y5000000D01*
X-5586420Y45000000D02*
X4500000Y45000000D01*
X-5000000Y5000000D02*
X-5000000Y45000000D01*
X-5000000Y5000000D02*
X-5586421Y6126504D01*
X-5000000Y5000000D02*
X-4413579Y6126504D01*
X-5000000Y45000000D02*
X-4413579Y43873496D01*
X-5000000Y45000000D02*
X-5586421Y43873496D01*
D10*
X14238095Y56599943D02*
X14285714Y56647562D01*
X14285714Y56647562D02*
X14380952Y56695181D01*
X14380952Y56695181D02*
X14619047Y56695181D01*
X14619047Y56695181D02*
X14714285Y56647562D01*
X14714285Y56647562D02*
X14761904Y56599943D01*
X14761904Y56599943D02*
X14809523Y56504705D01*
X14809523Y56504705D02*
X14809523Y56409467D01*
X14809523Y56409467D02*
X14761904Y56266610D01*
X14761904Y56266610D02*
X14190476Y55695181D01*
X14190476Y55695181D02*
X14809523Y55695181D01*
X15428571Y56695181D02*
X15523809Y56695181D01*
X15523809Y56695181D02*
X15619047Y56647562D01*
X15619047Y56647562D02*
X15666666Y56599943D01*
X15666666Y56599943D02*
X15714285Y56504705D01*
X15714285Y56504705D02*
X15761904Y56314229D01*
X15761904Y56314229D02*
X15761904Y56076134D01*
X15761904Y56076134D02*
X15714285Y55885658D01*
X15714285Y55885658D02*
X15666666Y55790420D01*
X15666666Y55790420D02*
X15619047Y55742800D01*
X15619047Y55742800D02*
X15523809Y55695181D01*
X15523809Y55695181D02*
X15428571Y55695181D01*
X15428571Y55695181D02*
X15333333Y55742800D01*
X15333333Y55742800D02*
X15285714Y55790420D01*
X15285714Y55790420D02*
X15238095Y55885658D01*
X15238095Y55885658D02*
X15190476Y56076134D01*
X15190476Y56076134D02*
X15190476Y56314229D01*
X15190476Y56314229D02*
X15238095Y56504705D01*
X15238095Y56504705D02*
X15285714Y56599943D01*
X15285714Y56599943D02*
X15333333Y56647562D01*
X15333333Y56647562D02*
X15428571Y56695181D01*
D11*
X5000000Y45500000D02*
X5000000Y55586420D01*
X25000000Y55586420D02*
X25000000Y45500000D01*
X5000000Y55000000D02*
X25000000Y55000000D01*
X5000000Y55000000D02*
X6126504Y55586421D01*
X5000000Y55000000D02*
X6126504Y54413579D01*
X25000000Y55000000D02*
X23873496Y54413579D01*
X25000000Y55000000D02*
X23873496Y55586421D01*
D10*
X16738095Y-3400057D02*
X16785714Y-3352438D01*
X16785714Y-3352438D02*
X16880952Y-3304819D01*
X16880952Y-3304819D02*
X17119047Y-3304819D01*
X17119047Y-3304819D02*
X17214285Y-3352438D01*
X17214285Y-3352438D02*
X17261904Y-3400057D01*
X17261904Y-3400057D02*
X17309523Y-3495295D01*
X17309523Y-3495295D02*
X17309523Y-3590533D01*
X17309523Y-3590533D02*
X17261904Y-3733390D01*
X17261904Y-3733390D02*
X16690476Y-4304819D01*
X16690476Y-4304819D02*
X17309523Y-4304819D01*
X18214285Y-3304819D02*
X17738095Y-3304819D01*
X17738095Y-3304819D02*
X17690476Y-3781009D01*
X17690476Y-3781009D02*
X17738095Y-3733390D01*
X17738095Y-3733390D02*
X17833333Y-3685771D01*
X17833333Y-3685771D02*
X18071428Y-3685771D01*
X18071428Y-3685771D02*
X18166666Y-3733390D01*
X18166666Y-3733390D02*
X18214285Y-3781009D01*
X18214285Y-3781009D02*
X18261904Y-3876247D01*
X18261904Y-3876247D02*
X18261904Y-4114342D01*
X18261904Y-4114342D02*
X18214285Y-4209580D01*
X18214285Y-4209580D02*
X18166666Y-4257200D01*
X18166666Y-4257200D02*
X18071428Y-4304819D01*
X18071428Y-4304819D02*
X17833333Y-4304819D01*
X17833333Y-4304819D02*
X17738095Y-4257200D01*
X17738095Y-4257200D02*
X17690476Y-4209580D01*
D11*
X5000000Y4500000D02*
X5000000Y-5586420D01*
X30000000Y-5586420D02*
X30000000Y4500000D01*
X5000000Y-5000000D02*
X30000000Y-5000000D01*
X5000000Y-5000000D02*
X6126504Y-4413579D01*
X5000000Y-5000000D02*
X6126504Y-5586421D01*
X30000000Y-5000000D02*
X28873496Y-5586421D01*
X30000000Y-5000000D02*
X28873496Y-4413579D01*
D10*
X2738095Y56695181D02*
X2261905Y56695181D01*
X2261905Y56695181D02*
X2214286Y56218991D01*
X2214286Y56218991D02*
X2261905Y56266610D01*
X2261905Y56266610D02*
X2357143Y56314229D01*
X2357143Y56314229D02*
X2595238Y56314229D01*
X2595238Y56314229D02*
X2690476Y56266610D01*
X2690476Y56266610D02*
X2738095Y56218991D01*
X2738095Y56218991D02*
X2785714Y56123753D01*
X2785714Y56123753D02*
X2785714Y55885658D01*
X2785714Y55885658D02*
X2738095Y55790420D01*
X2738095Y55790420D02*
X2690476Y55742800D01*
X2690476Y55742800D02*
X2595238Y55695181D01*
X2595238Y55695181D02*
X2357143Y55695181D01*
X2357143Y55695181D02*
X2261905Y55742800D01*
X2261905Y55742800D02*
X2214286Y55790420D01*
D11*
X0Y45500000D02*
X0Y55586420D01*
X5000000Y55586420D02*
X5000000Y45500000D01*
X0Y55000000D02*
X5000000Y55000000D01*
X0Y55000000D02*
X1126504Y55586421D01*
X0Y55000000D02*
X1126504Y54413579D01*
X5000000Y55000000D02*
X3873496Y54413579D01*
X5000000Y55000000D02*
X3873496Y55586421D01*
D10*
X47738095Y-3304819D02*
X47261905Y-3304819D01*
X47261905Y-3304819D02*
X47214286Y-3781009D01*
X47214286Y-3781009D02*
X47261905Y-3733390D01*
X47261905Y-3733390D02*
X47357143Y-3685771D01*
X47357143Y-3685771D02*
X47595238Y-3685771D01*
X47595238Y-3685771D02*
X47690476Y-3733390D01*
X47690476Y-3733390D02*
X47738095Y-3781009D01*
X47738095Y-3781009D02*
X47785714Y-3876247D01*
X47785714Y-3876247D02*
X47785714Y-4114342D01*
X47785714Y-4114342D02*
X47738095Y-4209580D01*
X47738095Y-4209580D02*
X47690476Y-4257200D01*
X47690476Y-4257200D02*
X47595238Y-4304819D01*
X47595238Y-4304819D02*
X47357143Y-4304819D01*
X47357143Y-4304819D02*
X47261905Y-4257200D01*
X47261905Y-4257200D02*
X47214286Y-4209580D01*
D11*
X45000000Y4500000D02*
X45000000Y-5586420D01*
X50000000Y-5586420D02*
X50000000Y4500000D01*
X45000000Y-5000000D02*
X50000000Y-5000000D01*
X45000000Y-5000000D02*
X46126504Y-4413579D01*
X45000000Y-5000000D02*
X46126504Y-5586421D01*
X50000000Y-5000000D02*
X48873496Y-5586421D01*
X50000000Y-5000000D02*
X48873496Y-4413579D01*
D10*
X2738095Y-3304819D02*
X2261905Y-3304819D01*
X2261905Y-3304819D02*
X2214286Y-3781009D01*
X2214286Y-3781009D02*
X2261905Y-3733390D01*
X2261905Y-3733390D02*
X2357143Y-3685771D01*
X2357143Y-3685771D02*
X2595238Y-3685771D01*
X2595238Y-3685771D02*
X2690476Y-3733390D01*
X2690476Y-3733390D02*
X2738095Y-3781009D01*
X2738095Y-3781009D02*
X2785714Y-3876247D01*
X2785714Y-3876247D02*
X2785714Y-4114342D01*
X2785714Y-4114342D02*
X2738095Y-4209580D01*
X2738095Y-4209580D02*
X2690476Y-4257200D01*
X2690476Y-4257200D02*
X2595238Y-4304819D01*
X2595238Y-4304819D02*
X2357143Y-4304819D01*
X2357143Y-4304819D02*
X2261905Y-4257200D01*
X2261905Y-4257200D02*
X2214286Y-4209580D01*
D11*
X0Y4500000D02*
X0Y-5586420D01*
X5000000Y-5586420D02*
X5000000Y4500000D01*
X0Y-5000000D02*
X5000000Y-5000000D01*
X0Y-5000000D02*
X1126504Y-4413579D01*
X0Y-5000000D02*
X1126504Y-5586421D01*
X5000000Y-5000000D02*
X3873496Y-5586421D01*
X5000000Y-5000000D02*
X3873496Y-4413579D01*
D10*
X-6695181Y2738096D02*
X-6695181Y2261906D01*
X-6695181Y2261906D02*
X-6218991Y2214287D01*
X-6218991Y2214287D02*
X-6266610Y2261906D01*
X-6266610Y2261906D02*
X-6314229Y2357144D01*
X-6314229Y2357144D02*
X-6314229Y2595239D01*
X-6314229Y2595239D02*
X-6266610Y2690477D01*
X-6266610Y2690477D02*
X-6218991Y2738096D01*
X-6218991Y2738096D02*
X-6123753Y2785715D01*
X-6123753Y2785715D02*
X-5885658Y2785715D01*
X-5885658Y2785715D02*
X-5790420Y2738096D01*
X-5790420Y2738096D02*
X-5742800Y2690477D01*
X-5742800Y2690477D02*
X-5695181Y2595239D01*
X-5695181Y2595239D02*
X-5695181Y2357144D01*
X-5695181Y2357144D02*
X-5742800Y2261906D01*
X-5742800Y2261906D02*
X-5790420Y2214287D01*
D11*
X4500000Y0D02*
X-5586420Y0D01*
X-5586420Y5000000D02*
X4500000Y5000000D01*
X-5000000Y0D02*
X-5000000Y5000000D01*
X-5000000Y0D02*
X-5586421Y1126504D01*
X-5000000Y0D02*
X-4413579Y1126504D01*
X-5000000Y5000000D02*
X-4413579Y3873496D01*
X-5000000Y5000000D02*
X-5586421Y3873496D01*
%TO.C,U2*%
D12*
X37400000Y18130000D02*
G75*
G02*
X37150000Y18130000I-125000J0D01*
G01*
X37150000Y18130000D02*
G75*
G02*
X37400000Y18130000I125000J0D01*
G01*
%TD*%
M02*
