%TF.GenerationSoftware,KiCad,Pcbnew,10.0.1*%
%TF.CreationDate,2026-09-25T02:30:35+01:00*%
%TF.ProjectId,FPGA_AURA,46504741-5f41-4555-9241-2e6b69636164,Rev A*%
%TF.SameCoordinates,PX5f5e100PY5f5e100*%
%TF.FileFunction,Paste,Top*%
%TF.FilePolarity,Positive*%
%FSLAX46Y46*%
G04 Gerber Fmt 4.6, Leading zero omitted, Abs format (unit mm)*
G04 Created by KiCad (PCBNEW 10.0.1) date 2026-09-25 02:30:35*
%MOMM*%
%LPD*%
G01*
G04 APERTURE LIST*
G04 Aperture macros list*
%AMRoundRect*
0 Rectangle with rounded corners*
0 $1 Rounding radius*
0 $2 $3 $4 $5 $6 $7 $8 $9 X,Y pos of 4 corners*
0 Add a 4 corners polygon primitive as box body*
4,1,4,$2,$3,$4,$5,$6,$7,$8,$9,$2,$3,0*
0 Add four circle primitives for the rounded corners*
1,1,$1+$1,$2,$3*
1,1,$1+$1,$4,$5*
1,1,$1+$1,$6,$7*
1,1,$1+$1,$8,$9*
0 Add four rect primitives between the rounded corners*
20,1,$1+$1,$2,$3,$4,$5,0*
20,1,$1+$1,$4,$5,$6,$7,0*
20,1,$1+$1,$6,$7,$8,$9,0*
20,1,$1+$1,$8,$9,$2,$3,0*%
%AMRotRect*
0 Rectangle, with rotation*
0 The origin of the aperture is its center*
0 $1 length*
0 $2 width*
0 $3 Rotation angle, in degrees counterclockwise*
0 Add horizontal line*
21,1,$1,$2,0,0,$3*%
G04 Aperture macros list end*
%ADD10C,0.010000*%
%ADD11RoundRect,0.135000X-0.135000X-0.185000X0.135000X-0.185000X0.135000X0.185000X-0.135000X0.185000X0*%
%ADD12RoundRect,0.135000X-0.185000X0.135000X-0.185000X-0.135000X0.185000X-0.135000X0.185000X0.135000X0*%
%ADD13RoundRect,0.135000X0.185000X-0.135000X0.185000X0.135000X-0.185000X0.135000X-0.185000X-0.135000X0*%
%ADD14RoundRect,0.218750X0.218750X0.256250X-0.218750X0.256250X-0.218750X-0.256250X0.218750X-0.256250X0*%
%ADD15RoundRect,0.140000X-0.021213X0.219203X-0.219203X0.021213X0.021213X-0.219203X0.219203X-0.021213X0*%
%ADD16RoundRect,0.250000X-0.850000X0.375000X-0.850000X-0.375000X0.850000X-0.375000X0.850000X0.375000X0*%
%ADD17RoundRect,0.030000X0.270000X0.090000X-0.270000X0.090000X-0.270000X-0.090000X0.270000X-0.090000X0*%
%ADD18RoundRect,0.140000X-0.140000X-0.170000X0.140000X-0.170000X0.140000X0.170000X-0.140000X0.170000X0*%
%ADD19RoundRect,0.250000X-0.250000X-0.475000X0.250000X-0.475000X0.250000X0.475000X-0.250000X0.475000X0*%
%ADD20RoundRect,0.140000X0.021213X-0.219203X0.219203X-0.021213X-0.021213X0.219203X-0.219203X0.021213X0*%
%ADD21RoundRect,0.225000X-0.335876X-0.017678X-0.017678X-0.335876X0.335876X0.017678X0.017678X0.335876X0*%
%ADD22RoundRect,0.250000X1.000000X-0.700000X1.000000X0.700000X-1.000000X0.700000X-1.000000X-0.700000X0*%
%ADD23RoundRect,0.140000X0.140000X0.170000X-0.140000X0.170000X-0.140000X-0.170000X0.140000X-0.170000X0*%
%ADD24RoundRect,0.250000X0.250000X0.475000X-0.250000X0.475000X-0.250000X-0.475000X0.250000X-0.475000X0*%
%ADD25C,0.350000*%
%ADD26RoundRect,0.032500X0.097500X-0.397500X0.097500X0.397500X-0.097500X0.397500X-0.097500X-0.397500X0*%
%ADD27RoundRect,0.032500X0.397500X-0.097500X0.397500X0.097500X-0.397500X0.097500X-0.397500X-0.097500X0*%
%ADD28RoundRect,0.140000X-0.219203X-0.021213X-0.021213X-0.219203X0.219203X0.021213X0.021213X0.219203X0*%
%ADD29RoundRect,0.225000X0.017678X-0.335876X0.335876X-0.017678X-0.017678X0.335876X-0.335876X0.017678X0*%
%ADD30RoundRect,0.225000X0.225000X0.250000X-0.225000X0.250000X-0.225000X-0.250000X0.225000X-0.250000X0*%
%ADD31RoundRect,0.225000X-0.017678X0.335876X-0.335876X0.017678X0.017678X-0.335876X0.335876X-0.017678X0*%
%ADD32RoundRect,0.140000X0.170000X-0.140000X0.170000X0.140000X-0.170000X0.140000X-0.170000X-0.140000X0*%
%ADD33RoundRect,0.135000X0.135000X0.185000X-0.135000X0.185000X-0.135000X-0.185000X0.135000X-0.185000X0*%
%ADD34RoundRect,0.225000X-0.225000X-0.250000X0.225000X-0.250000X0.225000X0.250000X-0.225000X0.250000X0*%
%ADD35C,0.500000*%
%ADD36RoundRect,0.140000X-0.170000X0.140000X-0.170000X-0.140000X0.170000X-0.140000X0.170000X0.140000X0*%
%ADD37RotRect,1.000000X0.900000X225.000000*%
G04 APERTURE END LIST*
D10*
%TO.C,U4*%
X32675000Y18501345D02*
X32425000Y18501345D01*
X32424999Y18841345D01*
X32675000Y18841345D01*
X32675000Y18501345D01*
G36*
X32675000Y18501345D02*
G01*
X32425000Y18501345D01*
X32424999Y18841345D01*
X32675000Y18841345D01*
X32675000Y18501345D01*
G37*
X32675000Y15441345D02*
X32424999Y15441345D01*
X32425000Y15781345D01*
X32675000Y15781345D01*
X32675000Y15441345D01*
G36*
X32675000Y15441345D02*
G01*
X32424999Y15441345D01*
X32425000Y15781345D01*
X32675000Y15781345D01*
X32675000Y15441345D01*
G37*
X33175000Y18501345D02*
X32925000Y18501345D01*
X32925000Y18841345D01*
X33175001Y18841345D01*
X33175000Y18501345D01*
G36*
X33175000Y18501345D02*
G01*
X32925000Y18501345D01*
X32925000Y18841345D01*
X33175001Y18841345D01*
X33175000Y18501345D01*
G37*
X33175001Y15441345D02*
X32925000Y15441345D01*
X32925000Y15781345D01*
X33175000Y15781345D01*
X33175001Y15441345D01*
G36*
X33175001Y15441345D02*
G01*
X32925000Y15441345D01*
X32925000Y15781345D01*
X33175000Y15781345D01*
X33175001Y15441345D01*
G37*
X33550000Y17241345D02*
X32050000Y17241345D01*
X32050000Y18301345D01*
X33550000Y18301345D01*
X33550000Y17241345D01*
G36*
X33550000Y17241345D02*
G01*
X32050000Y17241345D01*
X32050000Y18301345D01*
X33550000Y18301345D01*
X33550000Y17241345D01*
G37*
X33550000Y15981345D02*
X32050000Y15981345D01*
X32050000Y17041345D01*
X33550000Y17041345D01*
X33550000Y15981345D01*
G36*
X33550000Y15981345D02*
G01*
X32050000Y15981345D01*
X32050000Y17041345D01*
X33550000Y17041345D01*
X33550000Y15981345D01*
G37*
%TO.C,U100*%
X44065660Y24434340D02*
X41937000Y24434340D01*
X41937000Y26563000D01*
X44065660Y26563000D01*
X44065660Y24434340D01*
G36*
X44065660Y24434340D02*
G01*
X41937000Y24434340D01*
X41937000Y26563000D01*
X44065660Y26563000D01*
X44065660Y24434340D01*
G37*
%TD*%
D11*
%TO.C,R706*%
X29940000Y7341345D03*
X30960000Y7341345D03*
%TD*%
%TO.C,R300*%
X45340000Y9391345D03*
X46360000Y9391345D03*
%TD*%
D12*
%TO.C,R107*%
X36250000Y26510000D03*
X36250000Y25490000D03*
%TD*%
D11*
%TO.C,R704*%
X36090000Y7341345D03*
X37110000Y7341345D03*
%TD*%
D13*
%TO.C,R108*%
X35250000Y25490000D03*
X35250000Y26510000D03*
%TD*%
D14*
%TO.C,D707*%
X31187500Y4091345D03*
X29612500Y4091345D03*
%TD*%
D15*
%TO.C,C601*%
X2032304Y13587863D03*
X1353482Y12909041D03*
%TD*%
D16*
%TO.C,L102*%
X40400000Y18325000D03*
X40400000Y16175000D03*
%TD*%
D11*
%TO.C,R302*%
X43240000Y10396345D03*
X44260000Y10396345D03*
%TD*%
D17*
%TO.C,U4*%
X34200000Y16141345D03*
X34200000Y16641345D03*
X34199999Y17141345D03*
X34200000Y17641345D03*
X34200000Y18141345D03*
X31400000Y18141345D03*
X31400000Y17641345D03*
X31400001Y17141345D03*
X31400000Y16641345D03*
X31400000Y16141345D03*
%TD*%
D18*
%TO.C,C122*%
X35320000Y19641345D03*
X36280000Y19641345D03*
%TD*%
D19*
%TO.C,C106*%
X40300000Y38750000D03*
X42200000Y38750000D03*
%TD*%
D13*
%TO.C,R109*%
X36250000Y23490000D03*
X36250000Y24510000D03*
%TD*%
D14*
%TO.C,D705*%
X40387500Y5941345D03*
X38812500Y5941345D03*
%TD*%
%TO.C,D700*%
X37287500Y4083327D03*
X35712500Y4083327D03*
%TD*%
%TO.C,D703*%
X37337500Y5941345D03*
X35762500Y5941345D03*
%TD*%
D15*
%TO.C,C611*%
X12132311Y3437856D03*
X11453489Y2759034D03*
%TD*%
D20*
%TO.C,C503*%
X23617696Y20244827D03*
X24296518Y20923649D03*
%TD*%
D11*
%TO.C,R708*%
X39090000Y7341345D03*
X40110000Y7341345D03*
%TD*%
D13*
%TO.C,R423*%
X7050000Y40381345D03*
X7050000Y41401345D03*
%TD*%
D21*
%TO.C,C610*%
X18168036Y2850349D03*
X19264052Y1754333D03*
%TD*%
D18*
%TO.C,C115*%
X35320000Y17641344D03*
X36280000Y17641344D03*
%TD*%
D22*
%TO.C,L101*%
X46600000Y32200000D03*
X46600000Y36300000D03*
%TD*%
D23*
%TO.C,C105*%
X38480000Y24250000D03*
X37520000Y24250000D03*
%TD*%
D11*
%TO.C,R105*%
X47490000Y24500000D03*
X48510000Y24500000D03*
%TD*%
%TO.C,R104*%
X47490000Y25500000D03*
X48510000Y25500000D03*
%TD*%
D23*
%TO.C,C120*%
X38480000Y26750000D03*
X37520000Y26750000D03*
%TD*%
D11*
%TO.C,R111*%
X37490000Y23250000D03*
X38510000Y23250000D03*
%TD*%
D19*
%TO.C,C108*%
X40300000Y14250000D03*
X42200000Y14250000D03*
%TD*%
D15*
%TO.C,C612*%
X12839411Y2730756D03*
X12160589Y2051934D03*
%TD*%
D23*
%TO.C,C114*%
X30280000Y18641345D03*
X29320000Y18641345D03*
%TD*%
D24*
%TO.C,C107*%
X45700000Y38750000D03*
X43800000Y38750000D03*
%TD*%
D25*
%TO.C,U500*%
X21000000Y38200000D03*
X21000000Y37400000D03*
X21000000Y36600000D03*
X21000000Y33400000D03*
X21000000Y32600000D03*
X21000000Y31800000D03*
X20200000Y38200000D03*
X20200000Y37400000D03*
X20200000Y36600000D03*
X20200000Y33400000D03*
X20200000Y32600000D03*
X20200000Y31800000D03*
X19400000Y38200000D03*
X19400000Y37400000D03*
X19400000Y36600000D03*
X19400000Y33400000D03*
X19400000Y32600000D03*
X19400000Y31800000D03*
X18600000Y38200000D03*
X18600000Y37400000D03*
X18600000Y36600000D03*
X18600000Y33400000D03*
X18600000Y32600000D03*
X18600000Y31800000D03*
X17800000Y38200000D03*
X17800000Y37400000D03*
X17800000Y36600000D03*
X17800000Y33400000D03*
X17800000Y32600000D03*
X17800000Y31800000D03*
X17000000Y38200000D03*
X17000000Y37400000D03*
X17000000Y36600000D03*
X17000000Y33400000D03*
X17000000Y32600000D03*
X17000000Y31800000D03*
X16200000Y38200000D03*
X16200000Y37400000D03*
X16200000Y36600000D03*
X16200000Y33400000D03*
X16200000Y32600000D03*
X16200000Y31800000D03*
X15400000Y38200000D03*
X15400000Y37400000D03*
X15400000Y36600000D03*
X15400000Y33400000D03*
X15400000Y32600000D03*
X15400000Y31800000D03*
X14600000Y38200000D03*
X14600000Y37400000D03*
X14600000Y36600000D03*
X14600000Y33400000D03*
X14600000Y32600000D03*
X14600000Y31800000D03*
X13800000Y38200000D03*
X13800000Y37400000D03*
X13800000Y36600000D03*
X13800000Y33400000D03*
X13800000Y32600000D03*
X13800000Y31800000D03*
X13000000Y38200000D03*
X13000000Y37400000D03*
X13000000Y36600000D03*
X13000000Y33400000D03*
X13000000Y32600000D03*
X13000000Y31800000D03*
X12200000Y38200000D03*
X12200000Y37400000D03*
X12200000Y36600000D03*
X12200000Y33400000D03*
X12200000Y32600000D03*
X12200000Y31800000D03*
X11400000Y38200000D03*
X11400000Y37400000D03*
X11400000Y36600000D03*
X11400000Y33400000D03*
X11400000Y32600000D03*
X11400000Y31800000D03*
X10600000Y38200000D03*
X10600000Y37400000D03*
X10600000Y36600000D03*
X10600000Y33400000D03*
X10600000Y32600000D03*
X10600000Y31800000D03*
X9800000Y38200000D03*
X9800000Y37400000D03*
X9800000Y36600000D03*
X9800000Y33400000D03*
X9800000Y32600000D03*
X9800000Y31800000D03*
X9000000Y38200000D03*
X9000000Y37400000D03*
X9000000Y36600000D03*
X9000000Y33400000D03*
X9000000Y32600000D03*
X9000000Y31800000D03*
%TD*%
D26*
%TO.C,U100*%
X40750000Y22565000D03*
X41250000Y22565000D03*
X41750000Y22565000D03*
X42250000Y22565000D03*
X42750000Y22565000D03*
X43250000Y22565000D03*
X43750000Y22565000D03*
X44250000Y22565000D03*
X44750000Y22565000D03*
X45250000Y22565000D03*
D27*
X45935000Y23250000D03*
X45935000Y23750000D03*
X45935000Y24250000D03*
X45935000Y24750000D03*
X45935000Y25250000D03*
X45935000Y25750000D03*
X45935000Y26250000D03*
X45935000Y26750000D03*
X45935000Y27250000D03*
X45935000Y27750000D03*
D26*
X45250000Y28435000D03*
X44750000Y28435000D03*
X44250000Y28435000D03*
X43750000Y28435000D03*
X43250000Y28435000D03*
X42750000Y28435000D03*
X42250000Y28435000D03*
X41750000Y28435000D03*
X41250000Y28435000D03*
X40750000Y28435000D03*
D27*
X40065000Y27750000D03*
X40065000Y27250000D03*
X40065000Y26750000D03*
X40065000Y26250000D03*
X40065000Y25750000D03*
X40065000Y25250000D03*
X40065000Y24750000D03*
X40065000Y24250000D03*
X40065000Y23750000D03*
X40065000Y23250000D03*
%TD*%
D14*
%TO.C,D706*%
X40387500Y4091345D03*
X38812500Y4091345D03*
%TD*%
D21*
%TO.C,C512*%
X21401992Y6139353D03*
X22498008Y5043337D03*
%TD*%
D28*
%TO.C,C508*%
X22210589Y7330756D03*
X22889411Y6651934D03*
%TD*%
D14*
%TO.C,D702*%
X34287500Y5941345D03*
X32712500Y5941345D03*
%TD*%
D23*
%TO.C,C408*%
X34380000Y19641346D03*
X33420000Y19641346D03*
%TD*%
D14*
%TO.C,D701*%
X34260922Y4083327D03*
X32685922Y4083327D03*
%TD*%
D29*
%TO.C,C511*%
X25909099Y18336230D03*
X27005115Y19432246D03*
%TD*%
D30*
%TO.C,C101*%
X39775000Y20000000D03*
X38225000Y20000000D03*
%TD*%
D11*
%TO.C,R711*%
X29940000Y2691345D03*
X30960000Y2691345D03*
%TD*%
D23*
%TO.C,C112*%
X38480000Y21250000D03*
X37520000Y21250000D03*
%TD*%
D31*
%TO.C,C609*%
X11033508Y4152953D03*
X9937492Y3056937D03*
%TD*%
D18*
%TO.C,C410*%
X15495000Y40916345D03*
X16455000Y40916345D03*
%TD*%
D15*
%TO.C,C602*%
X2739411Y12880756D03*
X2060589Y12201934D03*
%TD*%
D32*
%TO.C,C422*%
X18400000Y40020000D03*
X18400000Y40980000D03*
%TD*%
D20*
%TO.C,C500*%
X22910589Y20951934D03*
X23589411Y21630756D03*
%TD*%
D33*
%TO.C,R115*%
X38510000Y27750000D03*
X37490000Y27750000D03*
%TD*%
D22*
%TO.C,L100*%
X39400000Y32200000D03*
X39400000Y36300000D03*
%TD*%
D32*
%TO.C,C417*%
X17400000Y40020000D03*
X17400000Y40980000D03*
%TD*%
D18*
%TO.C,C119*%
X35320000Y18641345D03*
X36280000Y18641345D03*
%TD*%
D12*
%TO.C,R121*%
X33250000Y14651345D03*
X33250000Y13631345D03*
%TD*%
D32*
%TO.C,C413*%
X19400001Y40019999D03*
X19400001Y40979999D03*
%TD*%
D11*
%TO.C,R301*%
X45340000Y10400000D03*
X46360000Y10400000D03*
%TD*%
D31*
%TO.C,C606*%
X4498008Y10689353D03*
X3401992Y9593337D03*
%TD*%
D23*
%TO.C,C121*%
X30280000Y15641345D03*
X29320000Y15641345D03*
%TD*%
D28*
%TO.C,C510*%
X27403482Y12523649D03*
X28082304Y11844827D03*
%TD*%
D34*
%TO.C,C100*%
X46225000Y20000000D03*
X47775000Y20000000D03*
%TD*%
D33*
%TO.C,R106*%
X38510000Y25750000D03*
X37490000Y25750000D03*
%TD*%
D32*
%TO.C,C431*%
X20400000Y40020000D03*
X20400000Y40980000D03*
%TD*%
D35*
%TO.C,U1*%
X4643398Y14491345D03*
X5350505Y15198452D03*
X6057612Y15905559D03*
X6764719Y16612665D03*
X7471825Y17319772D03*
X8178932Y18026879D03*
X8886039Y18733986D03*
X9593146Y19441092D03*
X10300253Y20148199D03*
X11007359Y20855306D03*
X11714466Y21562413D03*
X12421573Y22269520D03*
X13128680Y22976626D03*
X13835786Y23683733D03*
X14542893Y24390840D03*
X15250000Y25097947D03*
X5350505Y13784238D03*
X6057612Y14491345D03*
X6764719Y15198452D03*
X7471825Y15905559D03*
X8178932Y16612665D03*
X8886039Y17319772D03*
X9593146Y18026879D03*
X10300253Y18733986D03*
X11007359Y19441092D03*
X11714466Y20148199D03*
X12421573Y20855306D03*
X13128680Y21562413D03*
X13835786Y22269520D03*
X14542893Y22976626D03*
X15250000Y23683733D03*
X15957107Y24390840D03*
X6057612Y13077131D03*
X6764719Y13784238D03*
X7471825Y14491345D03*
X8178932Y15198452D03*
X8886039Y15905559D03*
X9593146Y16612665D03*
X10300253Y17319772D03*
X11007359Y18026879D03*
X11714466Y18733986D03*
X12421573Y19441092D03*
X13128680Y20148199D03*
X13835786Y20855306D03*
X14542893Y21562413D03*
X15250000Y22269520D03*
X15957107Y22976626D03*
X16664214Y23683733D03*
X6764719Y12370025D03*
X7471825Y13077131D03*
X8178932Y13784238D03*
X8886039Y14491345D03*
X9593146Y15198452D03*
X10300253Y15905559D03*
X11007359Y16612665D03*
X11714466Y17319772D03*
X12421573Y18026879D03*
X13128680Y18733986D03*
X13835786Y19441092D03*
X14542893Y20148199D03*
X15250000Y20855306D03*
X15957107Y21562413D03*
X16664214Y22269520D03*
X17371320Y22976626D03*
X7471825Y11662918D03*
X8178932Y12370025D03*
X8886039Y13077131D03*
X9593146Y13784238D03*
X10300253Y14491345D03*
X11007359Y15198452D03*
X11714466Y15905559D03*
X12421573Y16612665D03*
X13128680Y17319772D03*
X13835786Y18026879D03*
X14542893Y18733986D03*
X15250000Y19441092D03*
X15957107Y20148199D03*
X16664214Y20855306D03*
X17371320Y21562413D03*
X18078427Y22269520D03*
X8178932Y10955811D03*
X8886039Y11662918D03*
X9593146Y12370025D03*
X10300253Y13077131D03*
X11007359Y13784238D03*
X11714466Y14491345D03*
X12421573Y15198452D03*
X13128680Y15905559D03*
X13835786Y16612665D03*
X14542893Y17319772D03*
X15250000Y18026879D03*
X15957107Y18733986D03*
X16664214Y19441092D03*
X17371320Y20148199D03*
X18078427Y20855306D03*
X18785534Y21562413D03*
X8886039Y10248704D03*
X9593146Y10955811D03*
X10300253Y11662918D03*
X11007359Y12370025D03*
X11714466Y13077131D03*
X12421573Y13784238D03*
X13128680Y14491345D03*
X13835786Y15198452D03*
X14542893Y15905559D03*
X15250000Y16612665D03*
X15957107Y17319772D03*
X16664214Y18026879D03*
X17371320Y18733986D03*
X18078427Y19441092D03*
X18785534Y20148199D03*
X19492641Y20855306D03*
X9593146Y9541598D03*
X10300253Y10248704D03*
X11007359Y10955811D03*
X11714466Y11662918D03*
X12421573Y12370025D03*
X13128680Y13077131D03*
X13835786Y13784238D03*
X14542893Y14491345D03*
X15250000Y15198452D03*
X15957107Y15905559D03*
X16664214Y16612665D03*
X17371320Y17319772D03*
X18078427Y18026879D03*
X18785534Y18733986D03*
X19492641Y19441092D03*
X20199747Y20148199D03*
X10300253Y8834491D03*
X11007359Y9541598D03*
X11714466Y10248704D03*
X12421573Y10955811D03*
X13128680Y11662918D03*
X13835786Y12370025D03*
X14542893Y13077131D03*
X15250000Y13784238D03*
X15957107Y14491345D03*
X16664214Y15198452D03*
X17371320Y15905559D03*
X18078427Y16612665D03*
X18785534Y17319772D03*
X19492641Y18026879D03*
X20199747Y18733986D03*
X20906854Y19441092D03*
X11007359Y8127384D03*
X11714466Y8834491D03*
X12421573Y9541598D03*
X13128680Y10248704D03*
X13835786Y10955811D03*
X14542893Y11662918D03*
X15250000Y12370025D03*
X15957107Y13077131D03*
X16664214Y13784238D03*
X17371320Y14491345D03*
X18078427Y15198452D03*
X18785534Y15905559D03*
X19492641Y16612665D03*
X20199747Y17319772D03*
X20906854Y18026879D03*
X21613961Y18733986D03*
X11714466Y7420277D03*
X12421573Y8127384D03*
X13128680Y8834491D03*
X13835786Y9541598D03*
X14542893Y10248704D03*
X15250000Y10955811D03*
X15957107Y11662918D03*
X16664214Y12370025D03*
X17371320Y13077131D03*
X18078427Y13784238D03*
X18785534Y14491345D03*
X19492641Y15198452D03*
X20199747Y15905559D03*
X20906854Y16612665D03*
X21613961Y17319772D03*
X22321068Y18026879D03*
X12421573Y6713170D03*
X13128680Y7420277D03*
X13835786Y8127384D03*
X14542893Y8834491D03*
X15250000Y9541598D03*
X15957107Y10248704D03*
X16664214Y10955811D03*
X17371320Y11662918D03*
X18078427Y12370025D03*
X18785534Y13077131D03*
X19492641Y13784238D03*
X20199747Y14491345D03*
X20906854Y15198452D03*
X21613961Y15905559D03*
X22321068Y16612665D03*
X23028175Y17319772D03*
X13128680Y6006064D03*
X13835786Y6713170D03*
X14542893Y7420277D03*
X15250000Y8127384D03*
X15957107Y8834491D03*
X16664214Y9541598D03*
X17371320Y10248704D03*
X18078427Y10955811D03*
X18785534Y11662918D03*
X19492641Y12370025D03*
X20199747Y13077131D03*
X20906854Y13784238D03*
X21613961Y14491345D03*
X22321068Y15198452D03*
X23028175Y15905559D03*
X23735281Y16612665D03*
X13835786Y5298957D03*
X14542893Y6006064D03*
X15250000Y6713170D03*
X15957107Y7420277D03*
X16664214Y8127384D03*
X17371320Y8834491D03*
X18078427Y9541598D03*
X18785534Y10248704D03*
X19492641Y10955811D03*
X20199747Y11662918D03*
X20906854Y12370025D03*
X21613961Y13077131D03*
X22321068Y13784238D03*
X23028175Y14491345D03*
X23735281Y15198452D03*
X24442388Y15905559D03*
X14542893Y4591850D03*
X15250000Y5298957D03*
X15957107Y6006064D03*
X16664214Y6713170D03*
X17371320Y7420277D03*
X18078427Y8127384D03*
X18785534Y8834491D03*
X19492641Y9541598D03*
X20199747Y10248704D03*
X20906854Y10955811D03*
X21613961Y11662918D03*
X22321068Y12370025D03*
X23028175Y13077131D03*
X23735281Y13784238D03*
X24442388Y14491345D03*
X25149495Y15198452D03*
X15250000Y3884743D03*
X15957107Y4591850D03*
X16664214Y5298957D03*
X17371320Y6006064D03*
X18078427Y6713170D03*
X18785534Y7420277D03*
X19492641Y8127384D03*
X20199747Y8834491D03*
X20906854Y9541598D03*
X21613961Y10248704D03*
X22321068Y10955811D03*
X23028175Y11662918D03*
X23735281Y12370025D03*
X24442388Y13077131D03*
X25149495Y13784238D03*
X25856602Y14491345D03*
%TD*%
D21*
%TO.C,C513*%
X20306966Y5044327D03*
X21402982Y3948311D03*
%TD*%
D13*
%TO.C,R122*%
X34250000Y13631345D03*
X34250000Y14651345D03*
%TD*%
D34*
%TO.C,C102*%
X47225000Y29950000D03*
X48775000Y29950000D03*
%TD*%
D18*
%TO.C,C113*%
X47520000Y21250000D03*
X48480000Y21250000D03*
%TD*%
D29*
%TO.C,C506*%
X24709099Y19536230D03*
X25805115Y20632246D03*
%TD*%
D11*
%TO.C,R701*%
X33010877Y2630229D03*
X34030877Y2630229D03*
%TD*%
D32*
%TO.C,C412*%
X22900000Y31720000D03*
X22900000Y32680000D03*
%TD*%
D11*
%TO.C,R702*%
X32990000Y7341345D03*
X34010000Y7341345D03*
%TD*%
D15*
%TO.C,C604*%
X10339411Y5280756D03*
X9660589Y4601934D03*
%TD*%
D12*
%TO.C,R110*%
X35250000Y24510000D03*
X35250000Y23490000D03*
%TD*%
D15*
%TO.C,C603*%
X5589411Y10030756D03*
X4910589Y9351934D03*
%TD*%
D18*
%TO.C,C117*%
X35320000Y15391345D03*
X36280000Y15391345D03*
%TD*%
D33*
%TO.C,R112*%
X38510000Y22250000D03*
X37490000Y22250000D03*
%TD*%
D28*
%TO.C,C507*%
X22917696Y8037863D03*
X23596518Y7359041D03*
%TD*%
D11*
%TO.C,R700*%
X36183000Y2641345D03*
X37203000Y2641345D03*
%TD*%
D28*
%TO.C,C509*%
X28110589Y13230756D03*
X28789411Y12551934D03*
%TD*%
D11*
%TO.C,R220*%
X29290000Y17641345D03*
X30310000Y17641345D03*
%TD*%
%TO.C,R116*%
X47490000Y27250000D03*
X48510000Y27250000D03*
%TD*%
D18*
%TO.C,C110*%
X37520000Y28750000D03*
X38480000Y28750000D03*
%TD*%
D14*
%TO.C,D704*%
X31187500Y5941345D03*
X29612500Y5941345D03*
%TD*%
D33*
%TO.C,R117*%
X40510000Y21250000D03*
X39490000Y21250000D03*
%TD*%
D11*
%TO.C,R710*%
X39090000Y2641345D03*
X40110000Y2641345D03*
%TD*%
D31*
%TO.C,C600*%
X3398008Y11789353D03*
X2301992Y10693337D03*
%TD*%
D12*
%TO.C,R600*%
X25255000Y3301345D03*
X25255000Y2281345D03*
%TD*%
D11*
%TO.C,R114*%
X47490000Y23500000D03*
X48510000Y23500000D03*
%TD*%
D23*
%TO.C,C111*%
X48480000Y28250000D03*
X47520000Y28250000D03*
%TD*%
D33*
%TO.C,R113*%
X48510000Y22500000D03*
X47490000Y22500000D03*
%TD*%
D11*
%TO.C,R118*%
X45490000Y21250000D03*
X46510000Y21250000D03*
%TD*%
D23*
%TO.C,C411*%
X16455000Y39991345D03*
X15495000Y39991345D03*
%TD*%
D11*
%TO.C,R123*%
X29290000Y16641345D03*
X30310000Y16641345D03*
%TD*%
D16*
%TO.C,L103*%
X45600000Y18325000D03*
X45600000Y16175000D03*
%TD*%
D15*
%TO.C,C514*%
X25339411Y6839411D03*
X24660589Y6160589D03*
%TD*%
D36*
%TO.C,C116*%
X32250000Y14621345D03*
X32250000Y13661345D03*
%TD*%
D32*
%TO.C,C421*%
X21400000Y40020000D03*
X21400000Y40980000D03*
%TD*%
D21*
%TO.C,C607*%
X19251992Y3939353D03*
X20348008Y2843337D03*
%TD*%
D24*
%TO.C,C109*%
X45700000Y14250000D03*
X43800000Y14250000D03*
%TD*%
D18*
%TO.C,C118*%
X35320000Y16491345D03*
X36280000Y16491345D03*
%TD*%
D13*
%TO.C,R424*%
X8050000Y40381345D03*
X8050000Y41401345D03*
%TD*%
D30*
%TO.C,C103*%
X38775000Y29950000D03*
X37225000Y29950000D03*
%TD*%
D37*
%TO.C,Y500*%
X27564214Y9120634D03*
X26079289Y10605559D03*
X24735786Y9262056D03*
X26220711Y7777131D03*
%TD*%
M02*
