%TF.GenerationSoftware,KiCad,Pcbnew,10.0.1*%
%TF.CreationDate,2026-09-25T02:30:35+01:00*%
%TF.ProjectId,FPGA_AURA,46504741-5f41-4555-9241-2e6b69636164,Rev A*%
%TF.SameCoordinates,PX5f5e100PY5f5e100*%
%TF.FileFunction,Legend,Bot*%
%TF.FilePolarity,Positive*%
%FSLAX46Y46*%
G04 Gerber Fmt 4.6, Leading zero omitted, Abs format (unit mm)*
G04 Created by KiCad (PCBNEW 10.0.1) date 2026-09-25 02:30:35*
%MOMM*%
%LPD*%
G01*
G04 APERTURE LIST*
%ADD10C,0.120000*%
%ADD11C,0.200000*%
G04 APERTURE END LIST*
%TO.C,C300*%
D10*
X27432836Y18726345D02*
X27217164Y18726345D01*
X27432836Y18006345D02*
X27217164Y18006345D01*
%TO.C,C406*%
X10390000Y29392164D02*
X10390000Y29607836D01*
X11110000Y29392164D02*
X11110000Y29607836D01*
%TO.C,C400*%
X6590000Y29392164D02*
X6590000Y29607836D01*
X7310000Y29392164D02*
X7310000Y29607836D01*
%TO.C,C201*%
X8611252Y16226345D02*
X8088748Y16226345D01*
X8611252Y14756345D02*
X8088748Y14756345D01*
%TO.C,C405*%
X16590000Y40599181D02*
X16590000Y40383509D01*
X17310000Y40599181D02*
X17310000Y40383509D01*
%TO.C,R408*%
X6346359Y34400000D02*
X6653641Y34400000D01*
X6346359Y32000000D02*
X6653641Y32000000D01*
%TO.C,Q703*%
X39640000Y18351345D02*
X39640000Y16831345D01*
X39640000Y16831345D02*
X40640000Y16831345D01*
X39690000Y18351345D02*
X39640000Y18351345D01*
X41590000Y18351345D02*
X40810000Y18351345D01*
X41760000Y16831345D02*
X42760000Y16831345D01*
X42760000Y18351345D02*
X42710000Y18351345D01*
X42760000Y16831345D02*
X42760000Y18351345D01*
X41150000Y18651345D02*
X40820000Y18891345D01*
X41150000Y19131345D01*
X41150000Y18651345D01*
G36*
X41150000Y18651345D02*
G01*
X40820000Y18891345D01*
X41150000Y19131345D01*
X41150000Y18651345D01*
G37*
%TO.C,J701*%
D11*
X22770000Y6150000D02*
X22770000Y3850000D01*
X22770000Y3850000D02*
X24120000Y3850000D01*
X24120000Y7425000D02*
X24120000Y6150000D01*
X24120000Y6150000D02*
X22770000Y6150000D01*
X24120000Y3850000D02*
X24120000Y2575000D01*
X24120000Y2575000D02*
X24750000Y2575000D01*
X24750000Y7425000D02*
X24120000Y7425000D01*
X35250000Y2575000D02*
X36810000Y2575000D01*
X36810000Y7425000D02*
X35250000Y7425000D01*
X36810000Y2575000D02*
X36810000Y7425000D01*
X25350000Y8400000D02*
G75*
G02*
X25150000Y8400000I-100000J0D01*
G01*
X25150000Y8400000D02*
G75*
G02*
X25350000Y8400000I100000J0D01*
G01*
%TO.C,C206*%
D10*
X18069190Y14369652D02*
X18221693Y14522155D01*
X18578307Y13860535D02*
X18730810Y14013038D01*
%TO.C,Q700*%
X39640000Y13451345D02*
X39640000Y11931345D01*
X39640000Y11931345D02*
X40640000Y11931345D01*
X39690000Y13451345D02*
X39640000Y13451345D01*
X41590000Y13451345D02*
X40810000Y13451345D01*
X41760000Y11931345D02*
X42760000Y11931345D01*
X42760000Y13451345D02*
X42710000Y13451345D01*
X42760000Y11931345D02*
X42760000Y13451345D01*
X41150000Y13751345D02*
X40820000Y13991345D01*
X41150000Y14231345D01*
X41150000Y13751345D01*
G36*
X41150000Y13751345D02*
G01*
X40820000Y13991345D01*
X41150000Y14231345D01*
X41150000Y13751345D01*
G37*
%TO.C,Q702*%
X43240000Y13451345D02*
X43240000Y11931345D01*
X43240000Y11931345D02*
X44240000Y11931345D01*
X43290000Y13451345D02*
X43240000Y13451345D01*
X45190000Y13451345D02*
X44410000Y13451345D01*
X45360000Y11931345D02*
X46360000Y11931345D01*
X46360000Y13451345D02*
X46310000Y13451345D01*
X46360000Y11931345D02*
X46360000Y13451345D01*
X44750000Y13751345D02*
X44420000Y13991345D01*
X44750000Y14231345D01*
X44750000Y13751345D01*
G36*
X44750000Y13751345D02*
G01*
X44420000Y13991345D01*
X44750000Y14231345D01*
X44750000Y13751345D01*
G37*
%TO.C,R410*%
X11450000Y29346359D02*
X11450000Y29653641D01*
X13850000Y29346359D02*
X13850000Y29653641D01*
%TO.C,C608*%
X14569190Y7944652D02*
X14721693Y8097155D01*
X15078307Y7435535D02*
X15230810Y7588038D01*
%TO.C,C205*%
X15421693Y11710535D02*
X15269190Y11863038D01*
X15930810Y12219652D02*
X15778307Y12372155D01*
%TO.C,J700*%
D11*
X12770000Y46150000D02*
X12770000Y43850000D01*
X12770000Y43850000D02*
X14120000Y43850000D01*
X14120000Y47425000D02*
X14120000Y46150000D01*
X14120000Y46150000D02*
X12770000Y46150000D01*
X14120000Y43850000D02*
X14120000Y42575000D01*
X14120000Y42575000D02*
X14750000Y42575000D01*
X14750000Y47425000D02*
X14120000Y47425000D01*
X35250000Y42575000D02*
X36810000Y42575000D01*
X36810000Y47425000D02*
X35250000Y47425000D01*
X36810000Y42575000D02*
X36810000Y47425000D01*
X15350000Y48400000D02*
G75*
G02*
X15150000Y48400000I-100000J0D01*
G01*
X15150000Y48400000D02*
G75*
G02*
X15350000Y48400000I100000J0D01*
G01*
%TO.C,C212*%
D10*
X15421693Y17322155D02*
X15269190Y17169652D01*
X15930810Y16813038D02*
X15778307Y16660535D01*
%TO.C,R303*%
X18981940Y9572359D02*
X18764659Y9789640D01*
X19519341Y10109760D02*
X19302060Y10327041D01*
%TO.C,R102*%
X48153641Y26121345D02*
X47846359Y26121345D01*
X48153641Y25361345D02*
X47846359Y25361345D01*
%TO.C,Q704*%
X39827500Y23901345D02*
X39827500Y22381345D01*
X39827500Y22381345D02*
X40827500Y22381345D01*
X39877500Y23901345D02*
X39827500Y23901345D01*
X41777500Y23901345D02*
X40997500Y23901345D01*
X41947500Y22381345D02*
X42947500Y22381345D01*
X42947500Y23901345D02*
X42897500Y23901345D01*
X42947500Y22381345D02*
X42947500Y23901345D01*
X41337500Y24201345D02*
X41007500Y24441345D01*
X41337500Y24681345D01*
X41337500Y24201345D01*
G36*
X41337500Y24201345D02*
G01*
X41007500Y24441345D01*
X41337500Y24681345D01*
X41337500Y24201345D01*
G37*
%TO.C,C203*%
X12589970Y12552564D02*
X12788781Y12751375D01*
X13311219Y11831315D02*
X13510030Y12030126D01*
%TO.C,C605*%
X5963781Y10281315D02*
X5764970Y10480126D01*
X6685030Y11002564D02*
X6486219Y11201375D01*
%TO.C,R703*%
X39770000Y15794986D02*
X39770000Y15487704D01*
X40530000Y15794986D02*
X40530000Y15487704D01*
%TO.C,C210*%
X20964970Y14177564D02*
X21163781Y14376375D01*
X21686219Y13456315D02*
X21885030Y13655126D01*
%TO.C,R412*%
X7650000Y29346359D02*
X7650000Y29653641D01*
X10050000Y29346359D02*
X10050000Y29653641D01*
%TO.C,C501*%
X13869190Y21763038D02*
X14021693Y21610535D01*
X14378307Y22272155D02*
X14530810Y22119652D01*
%TO.C,C504*%
X8888781Y21126375D02*
X8689970Y20927564D01*
X9610030Y20405126D02*
X9411219Y20206315D01*
%TO.C,R411*%
X6346359Y38000000D02*
X6653641Y38000000D01*
X6346359Y35600000D02*
X6653641Y35600000D01*
%TO.C,C402*%
X6590000Y40607836D02*
X6590000Y40392164D01*
X7310000Y40607836D02*
X7310000Y40392164D01*
%TO.C,C200*%
X13963781Y9701375D02*
X13764970Y9502564D01*
X14685030Y8980126D02*
X14486219Y8781315D01*
%TO.C,R709*%
X40053641Y25921345D02*
X39746359Y25921345D01*
X40053641Y25161345D02*
X39746359Y25161345D01*
%TO.C,R305*%
X38570000Y17744986D02*
X38570000Y17437704D01*
X39330000Y17744986D02*
X39330000Y17437704D01*
%TO.C,R101*%
X44853641Y24871345D02*
X44546359Y24871345D01*
X44853641Y24111345D02*
X44546359Y24111345D01*
%TO.C,R413*%
X8750000Y40653641D02*
X8750000Y40346359D01*
X11150000Y40653641D02*
X11150000Y40346359D01*
%TO.C,C613*%
X15396693Y6035535D02*
X15244190Y6188038D01*
X15905810Y6544652D02*
X15753307Y6697155D01*
%TO.C,C202*%
X10638781Y10601375D02*
X10439970Y10402564D01*
X11360030Y9880126D02*
X11161219Y9681315D01*
%TO.C,C401*%
X6392164Y31660000D02*
X6607836Y31660000D01*
X6392164Y30940000D02*
X6607836Y30940000D01*
%TO.C,C209*%
X20813781Y11951375D02*
X20614970Y11752564D01*
X21535030Y11230126D02*
X21336219Y11031315D01*
%TO.C,R707*%
X38595000Y19719986D02*
X38595000Y19412704D01*
X39355000Y19719986D02*
X39355000Y19412704D01*
%TO.C,Q701*%
X43240000Y18351345D02*
X43240000Y16831345D01*
X43240000Y16831345D02*
X44240000Y16831345D01*
X43290000Y18351345D02*
X43240000Y18351345D01*
X45190000Y18351345D02*
X44410000Y18351345D01*
X45360000Y16831345D02*
X46360000Y16831345D01*
X46360000Y18351345D02*
X46310000Y18351345D01*
X46360000Y16831345D02*
X46360000Y18351345D01*
X44750000Y18651345D02*
X44420000Y18891345D01*
X44750000Y19131345D01*
X44750000Y18651345D01*
G36*
X44750000Y18651345D02*
G01*
X44420000Y18891345D01*
X44750000Y19131345D01*
X44750000Y18651345D01*
G37*
%TO.C,C407*%
X6392164Y39060000D02*
X6607836Y39060000D01*
X6392164Y38340000D02*
X6607836Y38340000D01*
%TO.C,C207*%
X17089970Y11880126D02*
X17288781Y11681315D01*
X17811219Y12601375D02*
X18010030Y12402564D01*
%TO.C,R304*%
X13547659Y15656285D02*
X13764940Y15439004D01*
X14085060Y16193686D02*
X14302341Y15976405D01*
%TO.C,R307*%
X26553641Y17771345D02*
X26246359Y17771345D01*
X26553641Y17011345D02*
X26246359Y17011345D01*
%TO.C,C211*%
X13789970Y5280126D02*
X13988781Y5081315D01*
X14511219Y6001375D02*
X14710030Y5802564D01*
%TO.C,C213*%
X16694190Y18569652D02*
X16846693Y18722155D01*
X17203307Y18060535D02*
X17355810Y18213038D01*
%TO.C,C204*%
X11171693Y14480810D02*
X11019190Y14328307D01*
X11680810Y13971693D02*
X11528307Y13819190D01*
%TO.C,C502*%
X18246693Y20147155D02*
X18094190Y19994652D01*
X18755810Y19638038D02*
X18603307Y19485535D01*
%TO.C,C208*%
X11871693Y13772155D02*
X11719190Y13619652D01*
X12380810Y13263038D02*
X12228307Y13110535D01*
%TO.C,R705*%
X44953641Y15521345D02*
X44646359Y15521345D01*
X44953641Y14761345D02*
X44646359Y14761345D01*
%TO.C,R406*%
X37896359Y11821345D02*
X38203641Y11821345D01*
X37896359Y11061345D02*
X38203641Y11061345D01*
%TO.C,R409*%
X12550000Y40653641D02*
X12550000Y40346359D01*
X14950000Y40653641D02*
X14950000Y40346359D01*
%TO.C,C403*%
X11490000Y40607836D02*
X11490000Y40392164D01*
X12210000Y40607836D02*
X12210000Y40392164D01*
%TO.C,R100*%
X44546359Y25871345D02*
X44853641Y25871345D01*
X44546359Y25111345D02*
X44853641Y25111345D01*
%TO.C,R103*%
X44546359Y23862690D02*
X44853641Y23862690D01*
X44546359Y23102690D02*
X44853641Y23102690D01*
%TO.C,C214*%
X18794190Y13594652D02*
X18946693Y13747155D01*
X19303307Y13085535D02*
X19455810Y13238038D01*
%TO.C,C505*%
X9913781Y20076375D02*
X9714970Y19877564D01*
X10635030Y19355126D02*
X10436219Y19156315D01*
%TO.C,C404*%
X14290000Y29392164D02*
X14290000Y29607836D01*
X15010000Y29392164D02*
X15010000Y29607836D01*
%TO.C,R119*%
X48153641Y22871345D02*
X47846359Y22871345D01*
X48153641Y22111345D02*
X47846359Y22111345D01*
%TD*%
M02*
